<svg xmlns="http://www.w3.org/2000/svg" width="22.5" height="16.5" viewBox="0 0 22.5 16.5">
  <g id="account-settings" transform="translate(1461 -5937.5)">
    <g id="Group_2970" data-name="Group 2970" transform="translate(-3331 5810)" opacity="0.8">
      <path id="Path_174" data-name="Path 174" d="M13,19.667V18.111A3.156,3.156,0,0,0,9.8,15H4.2A3.156,3.156,0,0,0,1,18.111v1.556" transform="translate(1870 123.333)" fill="none" stroke="#9d9d9d" stroke-linecap="round" stroke-linejoin="round" stroke-width="2"/>
      <ellipse id="Ellipse_93" data-name="Ellipse 93" cx="3.2" cy="3.111" rx="3.2" ry="3.111" transform="translate(1873.8 129)" fill="none" stroke="#9d9d9d" stroke-linecap="round" stroke-linejoin="round" stroke-width="2"/>
    </g>
    <g id="settings-gear-rounded" transform="translate(-1449 5937.054)">
      <circle id="Ellipse_101" data-name="Ellipse 101" cx="0.5" cy="0.5" r="0.5" transform="translate(5 4.946)" fill="none" stroke="#9d9d9d" stroke-linecap="round" stroke-linejoin="round" stroke-width="1"/>
      <path id="Path_181" data-name="Path 181" d="M8.527,6.727a.675.675,0,0,0,.135.745l.025.025A.819.819,0,1,1,7.529,8.654L7.5,8.63a.68.68,0,0,0-1.154.483v.07a.818.818,0,1,1-1.636,0V9.145a.708.708,0,0,0-1.186-.483L3.5,8.687A.819.819,0,1,1,2.346,7.529L2.37,7.5a.68.68,0,0,0-.483-1.154h-.07a.818.818,0,1,1,0-1.636h.037a.708.708,0,0,0,.483-1.186L2.313,3.5A.819.819,0,1,1,3.471,2.346L3.5,2.37a.675.675,0,0,0,.745.135h.033a.675.675,0,0,0,.409-.618v-.07a.818.818,0,0,1,1.636,0v.037a.68.68,0,0,0,1.154.483L7.5,2.313A.819.819,0,1,1,8.654,3.471L8.63,3.5a.675.675,0,0,0-.135.745v.033a.675.675,0,0,0,.618.409h.07a.818.818,0,1,1,0,1.636H9.145A.675.675,0,0,0,8.527,6.727Z" transform="translate(0 -0.054)" fill="none" stroke="#9d9d9d" stroke-linecap="round" stroke-linejoin="round" stroke-width="1"/>
    </g>
  </g>
</svg>
