<svg xmlns="http://www.w3.org/2000/svg" width="8" height="8" viewBox="0 0 8 8">
  <path id="arrow-breadcrumb" d="M23.722.2a.688.688,0,0,0,0,.943l2.1,2.2H20.638a.667.667,0,0,0,0,1.333h5.184l-2.1,2.2a.688.688,0,0,0,0,.943.619.619,0,0,0,.9,0l3.189-3.333.047-.054,0-.006-.051.06a.665.665,0,0,0,.062-.075q.017-.024.032-.05l.014-.024c.007-.013.014-.027.02-.041l.014-.035c.005-.013.01-.026.014-.04l.009-.03q.006-.022.01-.043c0-.012,0-.023.006-.035s0-.026,0-.039,0-.031,0-.047S28,4,28,4V3.988q0-.024,0-.047L28,4a.7.7,0,0,0-.007-.1c0-.011,0-.023-.006-.035s-.006-.029-.01-.043l-.009-.031c0-.013-.009-.026-.014-.039l-.014-.035q-.009-.021-.02-.041l-.013-.024q-.015-.026-.032-.05l-.011-.015a.677.677,0,0,0-.051-.06L24.624.2a.619.619,0,0,0-.9,0" transform="translate(-20)" fill="#531039"/>
</svg>
