<svg id="btn-back" xmlns="http://www.w3.org/2000/svg" width="40" height="20" viewBox="0 0 40 20">
  <path id="btn-back-ol" d="M10.7.488a1.72,1.72,0,0,1,0,2.357L5.444,8.333H38.405a1.668,1.668,0,0,1,0,3.333H5.444L10.7,17.155a1.72,1.72,0,0,1,0,2.357,1.546,1.546,0,0,1-2.255,0L.467,11.179.35,11.042l-.011-.014.128.151a1.661,1.661,0,0,1-.154-.186q-.043-.06-.08-.124c-.012-.02-.023-.04-.034-.061s-.034-.067-.049-.1-.025-.057-.036-.086-.024-.066-.035-.1-.015-.05-.022-.076-.018-.072-.025-.109-.01-.058-.015-.087-.008-.065-.011-.1S0,10.071,0,10.032c0-.011,0-.021,0-.032V9.969q0-.059.006-.118L0,10a1.758,1.758,0,0,1,.018-.248c0-.028.009-.057.015-.086s.015-.073.025-.108.014-.052.022-.077.022-.066.034-.1.023-.058.036-.087.032-.069.05-.1.022-.041.034-.061q.038-.064.08-.124L.34,8.972a1.691,1.691,0,0,1,.127-.15L8.44.488a1.546,1.546,0,0,1,2.255,0" transform="translate(0 0)" fill="#531039"/>
</svg>
