<svg id="btn-back-large" xmlns="http://www.w3.org/2000/svg" width="60" height="32" viewBox="0 0 60 32">
  <path id="btn-back-ol" d="M16.044.781a2.888,2.888,0,0,1,0,3.771L8.166,13.333H57.608A2.54,2.54,0,0,1,60,16a2.541,2.541,0,0,1-2.392,2.667H8.166l7.877,8.781a2.888,2.888,0,0,1,0,3.771,2.222,2.222,0,0,1-3.383,0L.7,17.886l-.175-.218-.017-.023.192.241a2.629,2.629,0,0,1-.231-.3q-.064-.1-.12-.2c-.018-.032-.035-.065-.051-.1-.026-.053-.051-.107-.074-.163S.187,17.037.17,16.99s-.036-.105-.052-.159S.1,16.751.086,16.709q-.022-.086-.037-.174C.04,16.489.033,16.442.026,16.4s-.013-.1-.017-.156S0,16.114,0,16.052c0-.017,0-.034,0-.052v-.049q0-.095.009-.189L0,16a3,3,0,0,1,.026-.4c.006-.045.014-.092.022-.138s.023-.116.037-.173c.011-.042.022-.083.034-.124s.032-.105.051-.157.035-.093.054-.139.048-.11.075-.163c.016-.032.033-.065.05-.1q.056-.1.12-.2l.04-.058a2.668,2.668,0,0,1,.191-.24L12.661.781a2.222,2.222,0,0,1,3.383,0" transform="translate(0 0)" fill="#531039"/>
</svg>
