<svg xmlns="http://www.w3.org/2000/svg" width="28" height="14" viewBox="0 0 28 14">
  <path id="button-back-arrow" d="M7.487.342a1.2,1.2,0,0,1,0,1.65L3.811,5.833H26.884a1.168,1.168,0,0,1,0,2.333H3.811l3.676,3.842a1.2,1.2,0,0,1,0,1.65,1.082,1.082,0,0,1-1.579,0L.327,7.825l-.082-.1L.238,7.72l.089.105a1.163,1.163,0,0,1-.108-.13q-.03-.042-.056-.087L.139,7.565C.127,7.542.115,7.518.1,7.494s-.017-.04-.025-.06-.017-.046-.024-.07S.045,7.328.04,7.31.028,7.26.023,7.234s-.007-.041-.01-.061S.006,7.128,0,7.1s0-.055,0-.082C0,7.015,0,7.008,0,7V6.979Q0,6.937,0,6.9L0,7a1.23,1.23,0,0,1,.012-.174c0-.02.006-.04.01-.06S.033,6.715.04,6.69s.01-.036.016-.054.015-.046.024-.069S.1,6.526.1,6.506s.022-.048.035-.071l.024-.042q.026-.045.056-.087L.238,6.28a1.183,1.183,0,0,1,.089-.105L5.908.342a1.082,1.082,0,0,1,1.579,0" fill="rgba(33,33,33,0.6)"/>
</svg>
