<svg id="checkbox-active" xmlns="http://www.w3.org/2000/svg" width="24" height="24" viewBox="0 0 24 24">
  <rect id="Boundary" width="24" height="24" fill="none"/>
  <path id="_Color" data-name=" ↳Color" d="M16,18H2a2,2,0,0,1-2-2V2A2,2,0,0,1,2,0H16a2,2,0,0,1,2,2V16A2,2,0,0,1,16,18ZM2,2V16H16V2Z" transform="translate(3 3)" fill="rgba(0,0,0,0.4)"/>
  <path id="_Color-2" data-name=" ↳Color" d="M16,18H2a2,2,0,0,1-2-2V2A2,2,0,0,1,2,0H16a2,2,0,0,1,2,2V16A2,2,0,0,1,16,18ZM3.41,7.59h0L2,9l5,5,9-9L14.59,3.58,7,11.17,3.41,7.59Z" transform="translate(3 3)" fill="#c45fa5"/>
</svg>
