<svg xmlns="http://www.w3.org/2000/svg" width="32" height="32" viewBox="0 0 32 32">
  <path id="close-overlay" d="M2.016,1.037a3.555,3.555,0,0,0,0,4.989L12.06,16.182l-9.693,9.8a3.555,3.555,0,0,0,0,4.989,3.462,3.462,0,0,0,4.934,0l9.693-9.8,9.693,9.8a3.462,3.462,0,0,0,4.934,0,3.555,3.555,0,0,0,0-4.989l-9.693-9.8L31.972,6.026a3.556,3.556,0,0,0,0-4.989,3.462,3.462,0,0,0-4.934,0L16.994,11.193,6.95,1.037A3.462,3.462,0,0,0,2.016,1.037Z" transform="translate(-0.994 -0.004)" fill="rgba(33,33,33,0.4)" fill-rule="evenodd"/>
</svg>
