<svg xmlns="http://www.w3.org/2000/svg" width="16" height="16" viewBox="0 0 16 16">
  <path id="delete-message-recipient" d="M1.505.521a1.778,1.778,0,0,0,0,2.494L6.527,8.093l-4.847,4.9a1.778,1.778,0,0,0,0,2.494,1.731,1.731,0,0,0,2.467,0l4.847-4.9,4.847,4.9a1.731,1.731,0,0,0,2.467,0,1.778,1.778,0,0,0,0-2.494l-4.847-4.9,5.022-5.078a1.778,1.778,0,0,0,0-2.494,1.731,1.731,0,0,0-2.467,0L8.994,5.6,3.972.521A1.731,1.731,0,0,0,1.505.521Z" transform="translate(-0.994 -0.004)" fill="rgba(150,31,99,0.4)" fill-rule="evenodd"/>
</svg>
