<svg xmlns="http://www.w3.org/2000/svg" xmlns:xlink="http://www.w3.org/1999/xlink" width="62" height="62" viewBox="0 0 62 62">
  <defs>
    <filter id="Rectangle_173" x="0" y="0" width="62" height="62" filterUnits="userSpaceOnUse">
      <feOffset dy="3" input="SourceAlpha"/>
      <feGaussianBlur stdDeviation="3" result="blur"/>
      <feFlood flood-opacity="0.251"/>
      <feComposite operator="in" in2="blur"/>
      <feComposite in="SourceGraphic"/>
    </filter>
  </defs>
  <g id="filter-drawer-close" transform="translate(9 6)">
    <g transform="matrix(1, 0, 0, 1, -9, -6)" filter="url(#Rectangle_173)">
      <rect id="Rectangle_173-2" data-name="Rectangle 173" width="44" height="44" rx="22" transform="translate(9 6)" fill="rgba(255,255,255,0.9)"/>
    </g>
    <path id="close-cancel" d="M1.505.521a1.778,1.778,0,0,0,0,2.494L6.527,8.093l-4.847,4.9a1.778,1.778,0,0,0,0,2.494,1.731,1.731,0,0,0,2.467,0l4.847-4.9,4.847,4.9a1.731,1.731,0,0,0,2.467,0,1.778,1.778,0,0,0,0-2.494l-4.847-4.9,5.022-5.078a1.778,1.778,0,0,0,0-2.494,1.731,1.731,0,0,0-2.467,0L8.994,5.6,3.972.521A1.731,1.731,0,0,0,1.505.521Z" transform="translate(13.006 13.996)" fill="#961f63" fill-rule="evenodd"/>
  </g>
</svg>
