<svg id="fullscreen" xmlns="http://www.w3.org/2000/svg" width="16" height="16" viewBox="0 0 16 16">
  <path id="Path_239" data-name="Path 239" d="M1.5,1a.5.5,0,0,0-.5.5v4a.5.5,0,0,1-1,0v-4A1.5,1.5,0,0,1,1.5,0h4a.5.5,0,0,1,0,1ZM10,.5a.5.5,0,0,1,.5-.5h4A1.5,1.5,0,0,1,16,1.5v4a.5.5,0,0,1-1,0v-4a.5.5,0,0,0-.5-.5h-4A.5.5,0,0,1,10,.5ZM.5,10a.5.5,0,0,1,.5.5v4a.5.5,0,0,0,.5.5h4a.5.5,0,0,1,0,1h-4A1.5,1.5,0,0,1,0,14.5v-4A.5.5,0,0,1,.5,10Zm15,0a.5.5,0,0,1,.5.5v4A1.5,1.5,0,0,1,14.5,16h-4a.5.5,0,0,1,0-1h4a.5.5,0,0,0,.5-.5v-4A.5.5,0,0,1,15.5,10Z" transform="translate(0 0)" fill="#fff" fill-rule="evenodd"/>
</svg>
