<svg xmlns="http://www.w3.org/2000/svg" width="24" height="24" viewBox="0 0 24 24">
  <g id="Google" transform="translate(-449 -1459)">
    <path id="Path_6" data-name="Path 6" d="M283.858,225.587a14.4,14.4,0,0,0-.211-2.487H272.1v4.714h6.612a5.666,5.666,0,0,1-2.447,3.72v3.059h3.945A11.956,11.956,0,0,0,283.858,225.587Z" transform="translate(189.142 1245.452)" fill="#961f63"/>
    <path id="Path_7" data-name="Path 7" d="M39.84,334.2a11.718,11.718,0,0,0,8.115-2.955l-3.945-3.059A7.425,7.425,0,0,1,32.971,324.3H28.9v3.153A12.243,12.243,0,0,0,39.84,334.2Z" transform="translate(421.402 1148.804)" fill="#961f63"/>
    <path id="Path_8" data-name="Path 8" d="M5.319,157.84a7.333,7.333,0,0,1,0-4.687V150H1.252a12.252,12.252,0,0,0,0,10.994Z" transform="translate(449.05 1315.506)" fill="#961f63"/>
    <path id="Path_9" data-name="Path 9" d="M39.84,4.827a6.652,6.652,0,0,1,4.7,1.835h0l3.5-3.5A11.766,11.766,0,0,0,39.84-.018,12.239,12.239,0,0,0,28.9,6.73l4.066,3.153A7.322,7.322,0,0,1,39.84,4.827Z" transform="translate(421.402 1459.018)" fill="#961f63"/>
  </g>
</svg>
