<svg xmlns="http://www.w3.org/2000/svg" width="25.501" height="16.522" viewBox="0 0 25.501 16.522">
  <g id="Group-optionsmenu-727272" transform="translate(-1456.25 -594.126)">
    <path id="Path_175" data-name="Path 175" d="M14.693,20.154V18.436A3.43,3.43,0,0,0,11.269,15H4.423A3.43,3.43,0,0,0,1,18.436v1.718" transform="translate(1461.154 589.744)" fill="none" stroke="#727272" stroke-linecap="round" stroke-linejoin="round" stroke-width="1.5"/>
    <circle id="Ellipse_100" data-name="Ellipse 100" cx="3.547" cy="3.547" r="3.547" transform="translate(1465.419 594.898)" fill="none" stroke="#727272" stroke-linecap="round" stroke-linejoin="round" stroke-width="1.5"/>
    <path id="Path_176" data-name="Path 176" d="M22.577,20.284V18.528A3.5,3.5,0,0,0,20,15.13" transform="translate(1458.424 589.614)" fill="none" stroke="#727272" stroke-linecap="round" stroke-linejoin="round" stroke-width="1.5"/>
    <path id="Path_178" data-name="Path 178" d="M20,20.284V18.528a3.5,3.5,0,0,1,2.577-3.4" transform="translate(1437 589.614)" fill="none" stroke="#727272" stroke-linecap="round" stroke-linejoin="round" stroke-width="1.5"/>
    <path id="Path_177" data-name="Path 177" d="M16,3.13a3.527,3.527,0,0,1,2.577,3.436A3.527,3.527,0,0,1,16,10" transform="translate(1458.988 591.913)" fill="none" stroke="#727272" stroke-linecap="round" stroke-linejoin="round" stroke-width="1.5"/>
    <path id="Path_179" data-name="Path 179" d="M18.577,3.13A3.527,3.527,0,0,0,16,6.566,3.527,3.527,0,0,0,18.577,10" transform="translate(1444.436 591.913)" fill="none" stroke="#727272" stroke-linecap="round" stroke-linejoin="round" stroke-width="1.5"/>
  </g>
</svg>
