<svg id="ios" xmlns="http://www.w3.org/2000/svg" width="182" height="61" viewBox="0 0 182 61">
  <g id="Group_2924" data-name="Group 2924" transform="translate(0 0)">
    <g id="Group_2922" data-name="Group 2922">
      <path id="Path_205" data-name="Path 205" d="M167.507,0H14.5c-.558,0-1.109,0-1.665,0-.466,0-.928.012-1.4.019A20.046,20.046,0,0,0,8.391.292,10.118,10.118,0,0,0,5.5,1.248a9.793,9.793,0,0,0-2.462,1.8A9.543,9.543,0,0,0,1.246,5.518,10.086,10.086,0,0,0,.3,8.42a19.866,19.866,0,0,0-.273,3.053c-.014.468-.016.937-.023,1.4V48.127c.007.474.009.932.023,1.406A19.865,19.865,0,0,0,.3,52.586a10.065,10.065,0,0,0,.951,2.9,9.466,9.466,0,0,0,1.792,2.462,9.544,9.544,0,0,0,2.462,1.8,10.173,10.173,0,0,0,2.891.962,20.41,20.41,0,0,0,3.048.27c.47.01.932.016,1.4.016.556,0,1.107,0,1.665,0H167.507c.547,0,1.1,0,1.649,0,.463,0,.939-.006,1.4-.016a20.144,20.144,0,0,0,3.042-.27,10.33,10.33,0,0,0,2.9-.962,9.549,9.549,0,0,0,2.46-1.8,9.751,9.751,0,0,0,1.8-2.462,10.09,10.09,0,0,0,.942-2.9,20.652,20.652,0,0,0,.282-3.053c.006-.474.006-.932.006-1.406.012-.554.012-1.105.012-1.668V14.543c0-.558,0-1.112-.012-1.665,0-.468,0-.937-.006-1.4A20.648,20.648,0,0,0,181.7,8.42a10.111,10.111,0,0,0-.942-2.9,9.848,9.848,0,0,0-4.257-4.27,10.274,10.274,0,0,0-2.9-.956,19.787,19.787,0,0,0-3.042-.27c-.463-.007-.939-.016-1.4-.019-.547,0-1.1,0-1.649,0Z" transform="translate(0 0)" fill="#a6a6a6"/>
      <path id="Path_206" data-name="Path 206" d="M12.388,59.191c-.463,0-.915-.006-1.375-.016a19.246,19.246,0,0,1-2.842-.249,8.932,8.932,0,0,1-2.519-.835,8.222,8.222,0,0,1-2.124-1.55,8.111,8.111,0,0,1-1.552-2.129,8.739,8.739,0,0,1-.826-2.527A18.973,18.973,0,0,1,.9,49.027c-.01-.322-.022-1.392-.022-1.392V12.415S.886,11.361.9,11.051A18.907,18.907,0,0,1,1.147,8.2a8.791,8.791,0,0,1,.826-2.534A8.192,8.192,0,0,1,3.517,3.532,8.465,8.465,0,0,1,5.65,1.973a8.84,8.84,0,0,1,2.514-.829,19.092,19.092,0,0,1,2.852-.25L12.389.875H168.673l1.389.019a18.788,18.788,0,0,1,2.826.248,9.015,9.015,0,0,1,2.541.835A8.517,8.517,0,0,1,179.1,5.667a8.8,8.8,0,0,1,.814,2.514,19.861,19.861,0,0,1,.264,2.877c0,.432,0,.9,0,1.357.012.572.012,1.116.012,1.665V45.988c0,.554,0,1.094-.012,1.639,0,.5,0,.95-.006,1.417a19.466,19.466,0,0,1-.26,2.826,8.766,8.766,0,0,1-.821,2.546,8.355,8.355,0,0,1-1.544,2.113,8.233,8.233,0,0,1-2.128,1.559,8.9,8.9,0,0,1-2.537.838,19.026,19.026,0,0,1-2.843.249c-.445.01-.912.016-1.365.016l-1.648,0Z" transform="translate(0.466 0.467)"/>
    </g>
    <g id="_Group_" data-name="&lt;Group&gt;" transform="translate(15.29 13.18)">
      <g id="_Group_2" data-name="&lt;Group&gt;">
        <g id="_Group_3" data-name="&lt;Group&gt;">
          <path id="_Path_" data-name="&lt;Path&gt;" d="M32.661,23.675a7.588,7.588,0,0,1,3.613-6.366A7.767,7.767,0,0,0,30.154,14c-2.575-.27-5.071,1.541-6.383,1.541-1.337,0-3.358-1.514-5.533-1.469a8.15,8.15,0,0,0-6.858,4.183c-2.965,5.134-.753,12.68,2.087,16.83,1.421,2.032,3.082,4.3,5.256,4.222,2.127-.088,2.921-1.356,5.488-1.356,2.543,0,3.289,1.356,5.506,1.305,2.282-.037,3.72-2.041,5.091-4.093a16.808,16.808,0,0,0,2.328-4.742,7.332,7.332,0,0,1-4.476-6.745Z" transform="translate(-9.972 -5.919)" fill="#fff"/>
          <path id="_Path_2" data-name="&lt;Path&gt;" d="M23.769,14.073A7.471,7.471,0,0,0,25.478,8.72a7.6,7.6,0,0,0-4.918,2.545,7.109,7.109,0,0,0-1.754,5.154,6.285,6.285,0,0,0,4.963-2.347Z" transform="translate(-5.268 -8.72)" fill="#fff"/>
        </g>
      </g>
      <g id="Group_2923" data-name="Group 2923" transform="translate(36.013 14.031)">
        <path id="Path_207" data-name="Path 207" d="M46.5,31.973H39.244L37.5,37.119H34.427L41.3,18.078H44.5L51.37,37.119H48.244ZM40,29.6h5.753l-2.836-8.352h-.079Z" transform="translate(-34.427 -17.761)" fill="#fff"/>
        <path id="Path_208" data-name="Path 208" d="M59.708,28.436c0,4.314-2.309,7.086-5.793,7.086a4.706,4.706,0,0,1-4.368-2.429h-.066v6.876h-2.85V21.494H49.39V23.8h.052a4.924,4.924,0,0,1,4.42-2.454C57.386,21.349,59.708,24.134,59.708,28.436Zm-2.929,0c0-2.811-1.452-4.658-3.669-4.658-2.177,0-3.642,1.887-3.642,4.658,0,2.8,1.464,4.67,3.642,4.67,2.216,0,3.669-1.834,3.669-4.67Z" transform="translate(-27.918 -16.018)" fill="#fff"/>
        <path id="Path_209" data-name="Path 209" d="M69.673,28.436c0,4.314-2.309,7.086-5.793,7.086a4.706,4.706,0,0,1-4.368-2.429h-.066v6.876H56.6V21.494h2.758V23.8h.052a4.924,4.924,0,0,1,4.42-2.454C67.351,21.349,69.673,24.134,69.673,28.436Zm-2.929,0c0-2.811-1.452-4.658-3.669-4.658-2.177,0-3.642,1.887-3.642,4.658,0,2.8,1.464,4.67,3.642,4.67,2.216,0,3.669-1.834,3.669-4.67Z" transform="translate(-22.604 -16.018)" fill="#fff"/>
        <path id="Path_210" data-name="Path 210" d="M72.725,31.924c.211,1.888,2.045,3.128,4.552,3.128,2.4,0,4.13-1.24,4.13-2.942,0-1.478-1.042-2.363-3.51-2.969l-2.468-.594c-3.5-.845-5.12-2.48-5.12-5.133,0-3.285,2.863-5.542,6.928-5.542,4.023,0,6.782,2.257,6.875,5.542H81.236c-.172-1.9-1.743-3.047-4.038-3.047s-3.866,1.16-3.866,2.85c0,1.346,1,2.138,3.457,2.745l2.1.515c3.907.924,5.53,2.493,5.53,5.278,0,3.562-2.838,5.793-7.351,5.793-4.223,0-7.074-2.179-7.258-5.623Z" transform="translate(-15.558 -17.871)" fill="#fff"/>
        <path id="Path_211" data-name="Path 211" d="M85.044,19.3v3.285h2.64v2.257h-2.64v7.653c0,1.189.529,1.743,1.689,1.743a8.9,8.9,0,0,0,.937-.066v2.243a7.825,7.825,0,0,1-1.583.132c-2.811,0-3.907-1.056-3.907-3.748V24.842H80.163V22.585h2.018V19.3Z" transform="translate(-10.035 -17.109)" fill="#fff"/>
        <path id="Path_212" data-name="Path 212" d="M86.065,28.444c0-4.368,2.573-7.113,6.584-7.113s6.586,2.745,6.586,7.113-2.547,7.113-6.586,7.113S86.065,32.824,86.065,28.444Zm10.266,0c0-3-1.373-4.765-3.682-4.765s-3.681,1.782-3.681,4.765c0,3.008,1.372,4.763,3.681,4.763s3.682-1.755,3.682-4.763Z" transform="translate(-6.887 -16.026)" fill="#fff"/>
        <path id="Path_213" data-name="Path 213" d="M96.186,21.494H98.9v2.363h.066a3.311,3.311,0,0,1,3.339-2.508,4.395,4.395,0,0,1,.976.106V24.12a3.984,3.984,0,0,0-1.28-.172,2.871,2.871,0,0,0-2.969,3.194v8.234h-2.85Z" transform="translate(-1.489 -16.018)" fill="#fff"/>
        <path id="Path_214" data-name="Path 214" d="M113.74,31.307c-.383,2.52-2.838,4.25-5.978,4.25-4.038,0-6.545-2.706-6.545-7.047s2.52-7.179,6.425-7.179c3.841,0,6.256,2.638,6.256,6.848v.976h-9.8v.172a3.616,3.616,0,0,0,3.734,3.932,3.141,3.141,0,0,0,3.206-1.953Zm-9.633-4.143h6.94a3.339,3.339,0,0,0-3.405-3.523,3.514,3.514,0,0,0-3.535,3.523Z" transform="translate(1.194 -16.026)" fill="#fff"/>
      </g>
    </g>
  </g>
  <g id="_Group_4" data-name="&lt;Group&gt;" transform="translate(53.21 12.853)">
    <g id="Group_2925" data-name="Group 2925">
      <path id="Path_215" data-name="Path 215" d="M38.976,8.735a4.047,4.047,0,0,1,4.305,4.546c0,2.923-1.58,4.6-4.305,4.6h-3.3V8.735ZM37.092,16.59h1.725A2.876,2.876,0,0,0,41.834,13.3a2.884,2.884,0,0,0-3.017-3.272H37.092Z" transform="translate(-35.671 -8.284)" fill="#fff"/>
      <path id="Path_216" data-name="Path 216" d="M41.686,13.69a3.271,3.271,0,1,1,6.512,0,3.271,3.271,0,1,1-6.512,0Zm5.111,0c0-1.5-.672-2.372-1.852-2.372s-1.851.875-1.851,2.372.666,2.377,1.851,2.377S46.8,15.193,46.8,13.69Z" transform="translate(-32.471 -7.546)" fill="#fff"/>
      <path id="Path_217" data-name="Path 217" d="M54.242,17.1H52.829L51.4,12.014h-.108L49.873,17.1h-1.4l-1.9-6.9h1.382l1.237,5.269h.1l1.42-5.269h1.307l1.42,5.269h.108l1.231-5.269h1.363Z" transform="translate(-29.858 -7.499)" fill="#fff"/>
      <path id="Path_218" data-name="Path 218" d="M53.853,10.244h1.312v1.1h.1a2.067,2.067,0,0,1,2.06-1.23,2.246,2.246,0,0,1,2.39,2.568v4.47H58.355V13.021c0-1.11-.482-1.661-1.49-1.661a1.584,1.584,0,0,0-1.649,1.75v4.039H53.854Z" transform="translate(-25.974 -7.548)" fill="#fff"/>
      <path id="Path_219" data-name="Path 219" d="M59.094,8.437h1.363v9.6H59.094Z" transform="translate(-23.179 -8.437)" fill="#fff"/>
      <path id="Path_220" data-name="Path 220" d="M61.223,13.69a3.271,3.271,0,1,1,6.513,0,3.272,3.272,0,1,1-6.513,0Zm5.111,0c0-1.5-.672-2.372-1.852-2.372s-1.851.875-1.851,2.372.666,2.377,1.851,2.377S66.334,15.193,66.334,13.69Z" transform="translate(-22.051 -7.546)" fill="#fff"/>
      <path id="Path_221" data-name="Path 221" d="M66.4,15.193c0-1.243.925-1.959,2.568-2.061l1.87-.108v-.6c0-.729-.482-1.141-1.414-1.141-.761,0-1.288.279-1.439.767H66.667c.139-1.186,1.255-1.947,2.821-1.947,1.731,0,2.707.862,2.707,2.32v4.718H70.884v-.97h-.108A2.323,2.323,0,0,1,68.7,17.259a2.086,2.086,0,0,1-2.3-2.066Zm4.438-.59v-.577l-1.686.108c-.951.064-1.382.387-1.382,1s.539.983,1.28.983A1.628,1.628,0,0,0,70.839,14.6Z" transform="translate(-19.282 -7.546)" fill="#fff"/>
      <path id="Path_222" data-name="Path 222" d="M71.348,14.582c0-2.182,1.122-3.564,2.866-3.564a2.275,2.275,0,0,1,2.117,1.211h.1V8.437H77.8v9.6H76.49V16.946h-.108a2.4,2.4,0,0,1-2.168,1.2C72.458,18.151,71.348,16.769,71.348,14.582Zm1.408,0c0,1.464.69,2.346,1.845,2.346s1.858-.894,1.858-2.34-.717-2.346-1.858-2.346-1.845.887-1.845,2.34Z" transform="translate(-16.643 -8.437)" fill="#fff"/>
      <path id="Path_223" data-name="Path 223" d="M79.235,13.69a3.271,3.271,0,1,1,6.512,0,3.271,3.271,0,1,1-6.512,0Zm5.111,0c0-1.5-.672-2.372-1.852-2.372s-1.851.875-1.851,2.372.666,2.377,1.851,2.377S84.346,15.193,84.346,13.69Z" transform="translate(-12.445 -7.546)" fill="#fff"/>
      <path id="Path_224" data-name="Path 224" d="M84.669,10.244h1.312v1.1h.1a2.067,2.067,0,0,1,2.06-1.23,2.246,2.246,0,0,1,2.39,2.568v4.47H89.171V13.021c0-1.11-.482-1.661-1.49-1.661a1.584,1.584,0,0,0-1.649,1.75v4.039H84.669Z" transform="translate(-9.538 -7.548)" fill="#fff"/>
      <path id="Path_225" data-name="Path 225" d="M94.371,9.074v1.75h1.5v1.148h-1.5v3.55c0,.723.3,1.04.976,1.04a4.548,4.548,0,0,0,.52-.031v1.135a4.47,4.47,0,0,1-.741.07c-1.515,0-2.119-.533-2.119-1.864v-3.9h-1.1V10.824h1.1V9.074Z" transform="translate(-5.676 -8.097)" fill="#fff"/>
      <path id="Path_226" data-name="Path 226" d="M95.7,8.437h1.351v3.8h.108a2.125,2.125,0,0,1,2.105-1.237,2.275,2.275,0,0,1,2.378,2.574v4.458h-1.364V13.915c0-1.1-.514-1.661-1.476-1.661A1.613,1.613,0,0,0,97.067,14v4.032H95.7Z" transform="translate(-3.653 -8.437)" fill="#fff"/>
      <path id="Path_227" data-name="Path 227" d="M106.921,15.281a2.8,2.8,0,0,1-2.992,2,3.136,3.136,0,0,1-3.189-3.564,3.185,3.185,0,0,1,3.183-3.607c1.921,0,3.08,1.313,3.08,3.481v.475h-4.876v.076a1.825,1.825,0,0,0,1.839,1.978,1.655,1.655,0,0,0,1.643-.837Zm-4.793-2.225h3.487a1.666,1.666,0,0,0-1.7-1.789,1.766,1.766,0,0,0-1.788,1.789Z" transform="translate(-0.983 -7.546)" fill="#fff"/>
    </g>
  </g>
</svg>
