<svg xmlns="http://www.w3.org/2000/svg" width="130" height="50" viewBox="0 0 130 50">
  <g id="Layer_2" data-name="Layer 2" transform="translate(0.025)">
    <g id="Primary_Logomark" transform="translate(-0.025)">
      <path id="Path_252" data-name="Path 252" d="M1.233,43.686H3.365A1.25,1.25,0,0,1,4.59,44.771L5.984,56.124a1,1,0,0,0,1.985,0L9.36,44.508a.938.938,0,0,1,.938-.822h2.316a.938.938,0,0,1,.938.825l1.382,12.063a1,1,0,0,0,1.988,0L18.329,44.8a1.266,1.266,0,0,1,1.25-1.116h2.035a1.266,1.266,0,0,1,1.25,1.425L18.425,79.981H14.018L12.4,68.1a1,1,0,0,0-1.985,0L8.957,79.981H4.44l-4.458-34.9a1.25,1.25,0,0,1,1.25-1.391Z" transform="translate(0.025 -30.031)" fill="#941f63"/>
      <path id="Path_253" data-name="Path 253" d="M147.778,80h-5.064l-3.9-12.407a1.069,1.069,0,0,0-2.088.313V79.989H131.67V44.419a.719.719,0,0,1,.719-.719H135.5a.719.719,0,0,1,.688.5l4.689,14.951a.939.939,0,0,0,1.857-.284V44.419a.719.719,0,0,1,.719-.719h3.567a.775.775,0,0,1,.775.775Z" transform="translate(-90.567 -30.045)" fill="#941f63"/>
      <path id="Path_254" data-name="Path 254" d="M311.658,80h-4.9l4.661-34.163a2.463,2.463,0,0,1,2.441-2.132h2.216a2.463,2.463,0,0,1,2.441,2.144L322.974,80h-4.951l-.7-6.161a2.254,2.254,0,0,0-2.238-2h-.535a2.254,2.254,0,0,0-2.241,2.016Zm2.229-28.73-.741,14.364a1.4,1.4,0,0,0,1.4,1.472h.553a1.4,1.4,0,0,0,1.4-1.454l-.544-14.379a1.038,1.038,0,0,0-1.035-1h0a1.038,1.038,0,0,0-1.035.994Z" transform="translate(-211.039 -30.045)" fill="#941f63"/>
      <path id="Path_255" data-name="Path 255" d="M261.775,44.794a.81.81,0,0,0-.76-1.094H247.165a.756.756,0,0,0-.756.756v3.223a.756.756,0,0,0,.756.756h6.564a1.172,1.172,0,0,1,1.113,1.547l-8.371,24.864a2.635,2.635,0,0,0-.141.85V80h15.658V76.222a.957.957,0,0,0-.96-.96h-8.549a.794.794,0,0,1-.75-1.047l8.681-25.78Z" transform="translate(-169.441 -30.045)" fill="#941f63"/>
      <path id="Path_256" data-name="Path 256" d="M370.77,48.422V79.994h5.073V65.236h.706c3.048,0,5.28-.816,6.586-2.341,1.469-1.685,1.9-3.535,1.9-8.381,0-4.623-.435-6.53-1.96-8.44-1.469-1.851-3.1-2.394-7.5-2.394h-3.9a.9.9,0,0,0-.9.9Zm8.218,9.4a2.732,2.732,0,0,1-2.723,2.723h-.109a.444.444,0,0,1-.444-.441V47.553a.444.444,0,0,1,.444-.441h.538a2.279,2.279,0,0,1,2.282,2.279Z" transform="translate(-255.04 -30.031)" fill="#941f63"/>
      <path id="Path_257" data-name="Path 257" d="M194.88,48.436V44.485a.785.785,0,0,1,.785-.785h11.322a.694.694,0,0,1,.678.763v3.21a.7.7,0,0,1-.678.763H201.56a1.619,1.619,0,0,0-1.619,1.61v7.093a1.472,1.472,0,0,0,1.472,1.472h2.795a.741.741,0,0,1,.741.738v3.257a.738.738,0,0,1-.741.738h-2.866a1.4,1.4,0,0,0-1.4,1.4v9.331a1.188,1.188,0,0,0,1.188,1.188h5.452a.978.978,0,0,1,.978.978v3.751H194.88Z" transform="translate(-134.046 -30.045)" fill="#941f63"/>
      <path id="Path_258" data-name="Path 258" d="M89.084,93.011c-6.277.063-5.67,3.267-5.664.816,0-2.995,0-1.894.022-6.493a5.745,5.745,0,1,1,5.642,5.692Z" transform="translate(-57.361 -56.169)" fill="#f79b6d"/>
      <path id="Path_259" data-name="Path 259" d="M87.345,119.38c6.364-.059,5.749-3.31,5.742-.825,0,3.035,0,1.919-.019,6.564a5.739,5.739,0,1,1-5.724-5.739Z" transform="translate(-56.116 -80.859)" fill="#f79b6d"/>
      <path id="Path_260" data-name="Path 260" d="M89.685,10.85a4.084,4.084,0,0,0,1.122,2.407A9.578,9.578,0,0,1,92.5,15.789a5.159,5.159,0,0,1,.244.5,5.708,5.708,0,0,1,.431,2.135h0v6.593c0,2.479.625-.763-5.727-.831a5.724,5.724,0,0,1-4.867-8.753,8.721,8.721,0,0,1,1.6-2.213,3.17,3.17,0,0,0,.963-2.21c.091-2.707.244-5.408.353-8.127.025-.7-.038-1.4-.05-2.1,0-.625.441-.775.966-.775h2.013c.525,0,.969.15.957.8,0,.7-.075,1.4-.047,2.1.106,2.707.259,5.408.353,8.127" transform="translate(-56.202 0)" fill="#f79b6d"/>
    </g>
  </g>
</svg>
