<svg xmlns="http://www.w3.org/2000/svg" width="25.505" height="25.5" viewBox="0 0 25.505 25.5">
  <g id="likes-C45FA5" transform="translate(0.75 0.75)">
    <path id="thumbs-up" d="M16.632,10.4V5.6A3.629,3.629,0,0,0,12.974,2L8.1,12.8V26H21.851a2.427,2.427,0,0,0,2.439-2.04l1.683-10.8a2.374,2.374,0,0,0-.571-1.935,2.456,2.456,0,0,0-1.868-.825ZM8.1,26H4.439A2.42,2.42,0,0,1,2,23.6V15.2a2.42,2.42,0,0,1,2.439-2.4H8.1" transform="translate(-2 -2)" fill="none" stroke="#c45fa5" stroke-linecap="round" stroke-linejoin="round" stroke-width="1.5"/>
  </g>
</svg>
