<svg xmlns="http://www.w3.org/2000/svg" width="22" height="22" viewBox="0 0 22 22">
  <path id="message-optionsmenu-727272" d="M3.886,14.966l.988.152.086-.559L4.525,14.2ZM3.052,20.4l-.988-.152h0Zm.8.476.638.769h0Zm4.53-3.755.216-.976-.478-.106-.377.312ZM20,9.2c0,3.8-3.836,7.2-9,7.2v2c5.881,0,11-3.944,11-9.2ZM11,2c5.164,0,9,3.4,9,7.2h2C22,3.944,16.881,0,11,0ZM2,9.2C2,5.4,5.836,2,11,2V0C5.119,0,0,3.944,0,9.2Zm2.525,5A6.513,6.513,0,0,1,2,9.2H0a8.506,8.506,0,0,0,3.247,6.533ZM4.04,20.551l.834-5.433-1.977-.3-.834,5.433Zm-.822-.445a.522.522,0,0,1,.588-.048.494.494,0,0,1,.235.493l-1.977-.3a1.5,1.5,0,0,0,2.431,1.4Zm4.53-3.755-4.53,3.755,1.277,1.539,4.53-3.755ZM11,16.4a11.089,11.089,0,0,1-2.4-.259L8.17,18.1A13.087,13.087,0,0,0,11,18.4Z" fill="#727272"/>
</svg>
