<svg xmlns="http://www.w3.org/2000/svg" width="21" height="24" viewBox="0 0 21 24">
  <g id="paypal" transform="translate(-15.64 -13.961)">
    <path id="Path_185" data-name="Path 185" d="M5997,3797c.012.012.023.018.034.028Z" transform="translate(-5962.616 -3775.432)" fill="#253b80"/>
    <path id="Path_186" data-name="Path 186" d="M3581.221,3797a7.547,7.547,0,0,1-.2,1.092,6.947,6.947,0,0,1-6.693,5.13h-4.5l-2.042,7.558c-.187,1.211-.37,2.087-.37,2.087a.5.5,0,0,0,.472.58h4.589a.483.483,0,0,0,.478-.443l.825-5.732h3.821a5.935,5.935,0,0,0,4.151-1.678,5.633,5.633,0,0,0,1.143-6.562,5.77,5.77,0,0,0-1.638-2Z" transform="translate(-3546.839 -3775.485)" fill="#179bd7" fill-rule="evenodd"/>
    <path id="Path_187" data-name="Path 187" d="M2756.418,2476l-.052.334h-5.6v-.006h-.069a.488.488,0,0,1-.416-.544l2.909-20.336a.488.488,0,0,1,.49-.447h8.342a7.1,7.1,0,0,1,4.976,2.022,6.82,6.82,0,0,1,2.055,4.878h0a7.019,7.019,0,0,1-.035.7,7.388,7.388,0,0,1-.2,1.088,6.873,6.873,0,0,1-1.824,3.088,7.084,7.084,0,0,1-4.97,2.022h-4.572l-1.01,7.083A.75.75,0,0,1,2756.418,2476Z" transform="translate(-2734.636 -2441.039)" fill="#253b80"/>
  </g>
</svg>
