<svg xmlns="http://www.w3.org/2000/svg" width="36" height="36" viewBox="0 0 36 36">
  <path id="pork" d="M33.75,29.25a13.165,13.165,0,0,0-.844-2.619,8.121,8.121,0,0,0-1.195-2.3,24.47,24.47,0,0,0-3.393-2.8,18.456,18.456,0,0,0-2.936-1.688q-1.2-.51-2.391-1.125a7.428,7.428,0,0,1-1.863-1.283,18.9,18.9,0,0,1-2.619-3.217q-1.037-1.635-1.81-3.04a9.993,9.993,0,0,0-1.793-2.391q-1.547-1.547-2.373-2.32T10.494,4.676A13.241,13.241,0,0,0,8.3,3.129a5.968,5.968,0,0,0-1.9-.668L8.86,0a5.964,5.964,0,0,1,1.934.668,13.186,13.186,0,0,1,2.2,1.547Q14.2,3.235,15.03,4.026t2.372,2.3a9.94,9.94,0,0,1,1.793,2.391q.773,1.407,1.811,3.041a19.013,19.013,0,0,0,2.619,3.217,13.787,13.787,0,0,0,2.426,1.793q1.653,1.02,3.85,2.584a33.672,33.672,0,0,1,4.271,3.638,6.008,6.008,0,0,1,1.107,2.021A11.425,11.425,0,0,1,36,27.352ZM19.9,18.668a6.793,6.793,0,0,0,1.828,1.283q1.2.615,2.391,1.125a18.945,18.945,0,0,1,2.953,1.688,22.543,22.543,0,0,1,3.375,2.8,3.2,3.2,0,0,1,.563,1.248q.282.967.615,2.25a13,13,0,0,0,.65,1.986l-1.266,1.266a2.026,2.026,0,0,0-.563-1.037,14.647,14.647,0,0,0-1.4-1.389q-.877-.774-.949-.844-2.742-2.707-5.748-5.572T18.633,19.9q-2-2-4.676-4.781T10.195,11.25A18.957,18.957,0,0,1,8.244,9.035Q7.313,7.8,6.8,7.049A6.037,6.037,0,0,0,5.537,5.695,3.8,3.8,0,0,0,3.9,4.922l1.23-1.23a6.984,6.984,0,0,1,1.934.686,12.372,12.372,0,0,1,2.2,1.529Q10.475,6.926,11.3,7.718t2.374,2.3a10.927,10.927,0,0,1,1.775,2.391q.791,1.407,1.828,3.041A18.917,18.917,0,0,0,19.9,18.668Zm-2.5,2.461q.668.668,3.674,3.551t5.783,5.59a11.386,11.386,0,0,0,.932.861A15.834,15.834,0,0,1,29.2,32.5a2.006,2.006,0,0,1,.58,1.037L27.281,36a10.817,10.817,0,0,0-.721-2.355,6.632,6.632,0,0,0-1.072-2A33.737,33.737,0,0,0,21.217,28q-2.2-1.565-3.85-2.584a13.818,13.818,0,0,1-2.461-1.828,16.972,16.972,0,0,1-2.6-3.2q-1.02-1.652-1.811-3.041a11.112,11.112,0,0,0-1.774-2.373A50.349,50.349,0,0,0,3.867,10.67,9.3,9.3,0,0,0,0,8.789L2.637,6.152a3.832,3.832,0,0,1,1.67.773A5.64,5.64,0,0,1,5.555,8.279Q6.047,9.036,7,10.265a27.028,27.028,0,0,0,1.934,2.25q1.125,1.09,3.8,3.867T17.4,21.128Z" fill="#fff"/>
</svg>
