<svg xmlns="http://www.w3.org/2000/svg" width="24" height="24" viewBox="0 0 24 24">
  <g id="ratings-optionsmenu-727272" fill="none">
    <path d="M11.052,2.82a1,1,0,0,1,1.9,0l1.83,5.443a1,1,0,0,0,.921.681l5.585.15a1,1,0,0,1,.6,1.778l-4.515,3.638a1,1,0,0,0-.335,1.05l1.6,5.671a1,1,0,0,1-1.549,1.082l-4.5-3.256a1,1,0,0,0-1.172,0l-4.5,3.256a1,1,0,0,1-1.549-1.082l1.6-5.671a1,1,0,0,0-.335-1.05L2.116,10.872a1,1,0,0,1,.6-1.778L8.3,8.944a1,1,0,0,0,.921-.681Z" stroke="none"/>
    <path d="M 11.99999523162842 4.707971572875977 L 10.64443111419678 8.740884780883789 C 10.31156063079834 9.731194496154785 9.38624095916748 10.4154052734375 8.341900825500488 10.44346523284912 L 4.115579605102539 10.55708503723145 L 7.572601318359375 13.34269523620605 C 8.353911399841309 13.97227478027344 8.682580947875977 15.0030345916748 8.409920692443848 15.968674659729 L 7.199491500854492 20.25560188293457 L 10.53441143035889 17.8424243927002 C 10.96353054046631 17.53190612792969 11.47032070159912 17.36777496337891 12.00000095367432 17.36777496337891 C 12.52966117858887 17.36777496337891 13.0364408493042 17.53189468383789 13.46557140350342 17.84241485595703 L 16.80051040649414 20.2556037902832 L 15.5900707244873 15.968674659729 C 15.31742095947266 15.0030345916748 15.64609050750732 13.97227478027344 16.42741012573242 13.34268474578857 L 19.88442230224609 10.55708503723145 L 15.65813064575195 10.44346523284912 C 14.61376094818115 10.4154052734375 13.68844127655029 9.731194496154785 13.35557079315186 8.740894317626953 L 11.99999523162842 4.707971572875977 M 12 2.138645172119141 C 12.39759826660156 2.138645172119141 12.79519557952881 2.365774154663086 12.94788074493408 2.820034027099609 L 14.77740097045898 8.262975692749023 C 14.91110134124756 8.660745620727539 15.27892112731934 8.932734489440918 15.698410987854 8.944005012512207 L 21.28315162658691 9.094144821166992 C 22.21295166015625 9.119145393371582 22.60798072814941 10.28885459899902 21.88371086120605 10.87245464324951 L 17.36857032775879 14.51068496704102 C 17.05657196044922 14.76209449768066 16.92475128173828 15.17546463012695 17.03363037109375 15.56107521057129 L 18.63485145568848 21.23200416564941 C 18.83013343811035 21.92364120483398 18.28072166442871 22.50780868530273 17.66889953613281 22.50780868530273 C 17.47362899780273 22.50780868530273 17.2720775604248 22.44834899902344 17.08625030517578 22.31388473510742 L 12.58623123168945 19.0576343536377 C 12.41131591796875 18.93106460571289 12.20565891265869 18.86777877807617 12.00000095367432 18.86777877807617 C 11.79434299468994 18.86777877807617 11.58868598937988 18.93106460571289 11.41377067565918 19.0576343536377 L 6.913751602172852 22.31388473510742 C 6.727970123291016 22.44831657409668 6.526327133178711 22.50780868530273 6.33110237121582 22.50780868530273 C 5.719217300415039 22.50780868530273 5.169845581054688 21.92369651794434 5.365150451660156 21.23200416564941 L 6.966360092163086 15.56107521057129 C 7.075241088867188 15.17546463012695 6.943431854248047 14.76209449768066 6.631431579589844 14.51068496704102 L 2.116281509399414 10.87245464324951 C 1.392021179199219 10.28885459899902 1.787050247192383 9.119145393371582 2.716850280761719 9.094144821166992 L 8.301590919494629 8.944005012512207 C 8.721071243286133 8.932734489440918 9.088900566101074 8.660745620727539 9.222600936889648 8.262975692749023 L 11.05211067199707 2.820034027099609 C 11.20480060577393 2.365774154663086 11.60240077972412 2.138645172119141 12 2.138645172119141 Z" stroke="none" fill="#727272"/>
  </g>
</svg>
