<svg xmlns="http://www.w3.org/2000/svg" width="12" height="12" viewBox="0 0 12 12">
  <g id="ratings-userprofilecard-small" fill="none">
    <path d="M5.526,1.41a.5.5,0,0,1,.948,0l.915,2.721a.5.5,0,0,0,.461.341l2.792.075a.5.5,0,0,1,.3.889L8.684,7.255a.5.5,0,0,0-.167.525l.8,2.835a.5.5,0,0,1-.774.541L6.293,9.529a.5.5,0,0,0-.586,0l-2.25,1.628a.5.5,0,0,1-.774-.541l.8-2.835a.5.5,0,0,0-.167-.525L1.058,5.436a.5.5,0,0,1,.3-.889l2.792-.075a.5.5,0,0,0,.461-.341Z" stroke="none"/>
    <path d="M 6.000002384185791 4.700539112091064 C 5.709229469299316 5.443328380584717 4.994158267974854 5.949864864349365 4.191100597381592 5.971462249755859 L 4.115580081939697 5.973492622375488 L 4.256820678710938 6.087302684783936 C 4.88191032409668 6.590952396392822 5.144870281219482 7.415572643280029 4.926740646362305 8.188142776489258 L 4.90670108795166 8.259113311767578 C 5.232424259185791 8.046038627624512 5.60838794708252 7.933892250061035 6.000000476837158 7.933892250061035 C 6.391627788543701 7.933892250061035 6.767584323883057 8.046028137207031 7.093303203582764 8.259117126464844 L 7.073260307312012 8.188132286071777 C 6.855130672454834 7.415572643280029 7.118090629577637 6.590952396392822 7.743130683898926 6.087342262268066 L 7.884420394897461 5.973493099212646 L 7.808890342712402 5.971462249755859 C 7.005842208862305 5.949864864349365 6.290774822235107 5.443337440490723 6.000002384185791 4.700539112091064 M 5.999996662139893 1.069317817687988 C 6.198795318603516 1.069317817687988 6.397595405578613 1.182882308959961 6.473940372467041 1.410012245178223 L 7.388700485229492 4.131492614746094 C 7.455550670623779 4.33037281036377 7.639460563659668 4.466362476348877 7.849210262298584 4.472002506256104 L 10.64158058166504 4.547072410583496 C 11.10648059844971 4.559572696685791 11.30399036407471 5.14442253112793 10.94186019897461 5.436222553253174 L 8.684289932250977 7.255342483520508 C 8.528280258178711 7.38104248046875 8.462380409240723 7.587732315063477 8.516820907592773 7.780542373657227 L 9.317420959472656 10.61600208282471 C 9.415065765380859 10.96182060241699 9.140358924865723 11.25390625 8.834445953369141 11.25390625 C 8.736810684204102 11.25390625 8.63603401184082 11.22417640686035 8.543120384216309 11.15694236755371 L 6.293110370635986 9.52882194519043 C 6.205655574798584 9.465538024902344 6.102828025817871 9.433895111083984 6.000000476837158 9.433895111083984 C 5.897172927856445 9.433895111083984 5.794345378875732 9.465538024902344 5.70689058303833 9.52882194519043 L 3.456880569458008 11.15694236755371 C 3.363987922668457 11.22415924072266 3.263163566589355 11.25390625 3.165550231933594 11.25390625 C 2.859606742858887 11.25390625 2.584924697875977 10.96184825897217 2.682570457458496 10.61600208282471 L 3.483180046081543 7.780542373657227 C 3.537620544433594 7.587732315063477 3.471720695495605 7.38104248046875 3.315710067749023 7.255342483520508 L 1.058140754699707 5.436222553253174 C 0.6960105895996094 5.14442253112793 0.8935203552246094 4.559572696685791 1.358420372009277 4.547072410583496 L 4.150790691375732 4.472002506256104 C 4.360540390014648 4.466362476348877 4.544450283050537 4.33037281036377 4.611300468444824 4.131492614746094 L 5.526060581207275 1.410012245178223 C 5.602400302886963 1.182882308959961 5.80119800567627 1.069317817687988 5.999996662139893 1.069317817687988 Z" stroke="none" fill="#961f63"/>
  </g>
</svg>
