<svg id="repost" xmlns="http://www.w3.org/2000/svg" width="16" height="24" viewBox="0 0 16 24">
  <path id="Path_207" data-name="Path 207" d="M61.846,38.15a.915.915,0,0,1,.906-.924h2.384c5.04,0,9.409,3.246,9.409,8.472a.906.906,0,1,1-1.812,0c0-3.914-3.245-6.624-7.6-6.624H62.751A.915.915,0,0,1,61.846,38.15Z" transform="translate(-58.544 -33.564)" fill="#9d9d9d" fill-rule="evenodd"/>
  <path id="Path_208" data-name="Path 208" d="M62.108,10.271a.937.937,0,0,1,0,1.307l-2.921,2.98,2.921,2.98a.937.937,0,0,1,0,1.307.893.893,0,0,1-1.281,0L57,14.937a.543.543,0,0,1,0-.76l3.829-3.907A.893.893,0,0,1,62.108,10.271Z" transform="translate(-54.995 -10)" fill="#9d9d9d" fill-rule="evenodd"/>
  <path id="Path_209" data-name="Path 209" d="M55.7,99.836a.915.915,0,0,1-.906.924H52.409c-5.04,0-9.409-3.246-9.409-8.472a.906.906,0,1,1,1.812,0c0,3.913,3.245,6.624,7.6,6.624h2.384A.915.915,0,0,1,55.7,99.836Z" transform="translate(-43 -80.421)" fill="#9d9d9d" fill-rule="evenodd"/>
  <path id="Path_210" data-name="Path 210" d="M101.977,129.543a.937.937,0,0,1,0-1.307l2.921-2.98-2.921-2.98a.937.937,0,0,1,0-1.307.893.893,0,0,1,1.281,0l3.829,3.907a.543.543,0,0,1,0,.76l-3.829,3.907A.893.893,0,0,1,101.977,129.543Z" transform="translate(-93.09 -105.814)" fill="#9d9d9d" fill-rule="evenodd"/>
</svg>
