<svg xmlns="http://www.w3.org/2000/svg" width="16" height="16" viewBox="0 0 16 16">
  <path id="search" d="M15.7,14.369l-4.38-4.382a6.2,6.2,0,0,0,1.2-3.694A6.322,6.322,0,0,0,6.237,0,6.213,6.213,0,0,0,0,6.247a6.322,6.322,0,0,0,6.286,6.3,6.181,6.181,0,0,0,3.7-1.213l0,0L14.368,15.7A.945.945,0,1,0,15.7,14.369ZM6.278,11.287A5.058,5.058,0,0,1,1.249,6.252a4.971,4.971,0,0,1,4.992-5A5.058,5.058,0,0,1,11.27,6.288a4.971,4.971,0,0,1-4.992,5Z" transform="translate(0.004 0.002)" fill="#961f63" fill-rule="evenodd"/>
</svg>
