<svg xmlns="http://www.w3.org/2000/svg" width="15" height="16" viewBox="0 0 15 16">
  <path id="share-winecard" d="M12.214,1.231a1.469,1.469,0,0,0-1.5,1.436,1.5,1.5,0,0,0,3,0A1.469,1.469,0,0,0,12.214,1.231ZM9.429,2.667a2.788,2.788,0,0,1,5.571,0,2.728,2.728,0,0,1-2.786,2.667,2.844,2.844,0,0,1-1.9-.721L5.552,7.27a2.575,2.575,0,0,1-.2,1.349l4.957,2.765a2.844,2.844,0,0,1,1.9-.718,2.669,2.669,0,1,1-2.786,2.667,2.56,2.56,0,0,1,.171-.923l-5-2.788-.008,0a2.849,2.849,0,0,1-1.808.638A2.728,2.728,0,0,1,0,7.59,2.728,2.728,0,0,1,2.786,4.923,2.818,2.818,0,0,1,5.1,6.1L9.6,3.585A2.56,2.56,0,0,1,9.429,2.667ZM2.786,6.154a1.437,1.437,0,1,0,0,2.872,1.437,1.437,0,1,0,0-2.872Zm7.929,7.179a1.5,1.5,0,1,1,1.5,1.436A1.469,1.469,0,0,1,10.714,13.333Z" fill="#961f63" fill-rule="evenodd"/>
</svg>
