<svg xmlns="http://www.w3.org/2000/svg" width="10" height="11" viewBox="0 0 10 11">
  <path id="share-winecard-small" d="M8.143.846a.987.987,0,1,0,1,.987A.994.994,0,0,0,8.143.846Zm-1.857.987a1.857,1.857,0,0,1,3.714,0A1.845,1.845,0,0,1,8.143,3.667a1.864,1.864,0,0,1-1.27-.5L3.7,5a1.828,1.828,0,0,1,.013.22,1.807,1.807,0,0,1-.144.708l3.3,1.9a1.829,1.829,0,1,1-.59,1.34A1.809,1.809,0,0,1,6.4,8.532L3.068,6.616l-.005,0a1.864,1.864,0,0,1-1.205.439A1.833,1.833,0,1,1,3.4,4.194l3-1.729A1.809,1.809,0,0,1,6.286,1.833Zm-4.429,2.4a.987.987,0,1,0,1,.987A.994.994,0,0,0,1.857,4.231ZM7.143,9.167a1,1,0,1,1,1,.987A.994.994,0,0,1,7.143,9.167Z" fill="#961f63" fill-rule="evenodd"/>
</svg>
