<svg xmlns="http://www.w3.org/2000/svg" width="14" height="16" viewBox="0 0 14 16">
  <path id="share-livestream" d="M11.4,1.231A1.418,1.418,0,0,0,10,2.667a1.4,1.4,0,1,0,2.8,0A1.418,1.418,0,0,0,11.4,1.231ZM8.8,2.667a2.6,2.6,0,1,1,5.2,0,2.634,2.634,0,0,1-2.6,2.667,2.557,2.557,0,0,1-1.778-.721L5.182,7.27A2.761,2.761,0,0,1,5.2,7.59,2.717,2.717,0,0,1,5,8.619l4.626,2.765a2.557,2.557,0,0,1,1.774-.718,2.668,2.668,0,1,1-2.6,2.667,2.722,2.722,0,0,1,.16-.923L4.295,9.623l-.007,0a2.552,2.552,0,0,1-1.687.638,2.668,2.668,0,0,1,0-5.333A2.581,2.581,0,0,1,4.757,6.1l4.2-2.515A2.722,2.722,0,0,1,8.8,2.667ZM2.6,6.154a1.436,1.436,0,0,0,0,2.872,1.436,1.436,0,0,0,0-2.872ZM10,13.333a1.4,1.4,0,1,1,1.4,1.436A1.418,1.418,0,0,1,10,13.333Z" fill="#fff" fill-rule="evenodd"/>
</svg>
