<svg xmlns="http://www.w3.org/2000/svg" width="17" height="18" viewBox="0 0 17 18">
  <path id="sidebar-mentions-C45FA5" d="M-3.487-2.735A9.147,9.147,0,0,1-8.04-3.84a7.807,7.807,0,0,1-3.069-3.1,9.479,9.479,0,0,1-1.1-4.653,10.34,10.34,0,0,1,.646-3.743,8.15,8.15,0,0,1,1.857-2.884A8.352,8.352,0,0,1-6.828-20.08a9.994,9.994,0,0,1,3.685-.655,8.745,8.745,0,0,1,4.169.951A6.865,6.865,0,0,1,3.8-17.125a7.879,7.879,0,0,1,.989,4.019A8.645,8.645,0,0,1,4.3-10.027a4.6,4.6,0,0,1-1.373,2,3.175,3.175,0,0,1-2.049.706,2.75,2.75,0,0,1-1.635-.46,2.238,2.238,0,0,1-.868-1.3A3.755,3.755,0,0,1-2.942-7.757a3.236,3.236,0,0,1-1.635.44,3.139,3.139,0,0,1-2.5-1.023,4.13,4.13,0,0,1-.888-2.8A6.112,6.112,0,0,1-7.414-13.8a4.565,4.565,0,0,1,1.534-1.841,3.837,3.837,0,0,1,2.231-.675,2.489,2.489,0,0,1,2.463,1.452l.061-.43a.95.95,0,0,1,1.05-.88.875.875,0,0,1,.7.266.877.877,0,0,1,.131.777L.067-11.183a6.515,6.515,0,0,0-.121,1.1Q-.055-8.83,1-8.83A1.825,1.825,0,0,0,2.6-10.007a6.692,6.692,0,0,0,.616-3.1,6.415,6.415,0,0,0-.777-3.252,5.213,5.213,0,0,0-2.2-2.076,7.405,7.405,0,0,0-3.4-.726A7.625,7.625,0,0,0-7-18.229,6.469,6.469,0,0,0-9.544-15.6a8.379,8.379,0,0,0-.909,4.009,8.31,8.31,0,0,0,.858,3.907A5.964,5.964,0,0,0-7.172-5.179a7.468,7.468,0,0,0,3.685.869,8.555,8.555,0,0,0,2.413-.317A6.537,6.537,0,0,0,.874-5.558a.829.829,0,0,1,.676-.194.719.719,0,0,1,.474.337.856.856,0,0,1,.111.593.927.927,0,0,1-.414.593A7.64,7.64,0,0,1-.529-3.144,9.987,9.987,0,0,1-3.487-2.735Zm-.727-6.2A2.227,2.227,0,0,0-2.326-9.976a4.614,4.614,0,0,0,.737-2.72q0-1.984-1.736-1.984a2.308,2.308,0,0,0-1.918.982,4.074,4.074,0,0,0-.747,2.536,2.576,2.576,0,0,0,.464,1.657A1.594,1.594,0,0,0-4.214-8.933Z" transform="translate(12.209 20.735)" fill="#c45fa5"/>
</svg>
