<svg xmlns="http://www.w3.org/2000/svg" width="18" height="18" viewBox="0 0 18 18">
  <path id="sidebar-search-C45FA5" d="M17.666,16.165l-4.928-4.93a6.976,6.976,0,0,0,1.35-4.156A7.112,7.112,0,0,0,7.017,0,6.989,6.989,0,0,0,0,7.028,7.113,7.113,0,0,0,7.068,14.11a6.954,6.954,0,0,0,4.168-1.365l.005,0,4.924,4.926a1.063,1.063,0,1,0,1.5-1.5ZM7.063,12.7A5.69,5.69,0,0,1,1.406,7.034,5.593,5.593,0,0,1,7.022,1.409a5.69,5.69,0,0,1,5.657,5.665A5.593,5.593,0,0,1,7.063,12.7Z" transform="translate(0.004 0.002)" fill="#c45fa5" fill-rule="evenodd"/>
</svg>
