<svg xmlns="http://www.w3.org/2000/svg" width="20" height="20" viewBox="0 0 20 20">
  <path id="sidebar-Messages-C45FA5" d="M3.533,13.606l.9.138.078-.508-.4-.329Zm-.759,4.939-.9-.138h0Zm.731.433.58.7h0Zm4.119-3.413.2-.887-.434-.1-.343.284Zm10.558-7.2c0,3.457-3.487,6.548-8.182,6.548V16.73c5.347,0,10-3.586,10-8.365ZM10,1.817c4.695,0,8.182,3.091,8.182,6.548H20C20,3.586,15.347,0,10,0ZM1.818,8.365c0-3.457,3.487-6.548,8.182-6.548V0C4.653,0,0,3.586,0,8.365Zm2.3,4.542a5.921,5.921,0,0,1-2.3-4.542H0A7.733,7.733,0,0,0,2.952,14.3Zm-.441,5.776.759-4.939-1.8-.276-.759,4.939Zm-.748-.4a.474.474,0,0,1,.534-.044.449.449,0,0,1,.213.448l-1.8-.276a1.364,1.364,0,0,0,2.21,1.27Zm4.119-3.413L2.925,18.279l1.161,1.4L8.2,16.264ZM10,14.913a10.081,10.081,0,0,1-2.179-.236l-.393,1.774A11.9,11.9,0,0,0,10,16.73Z" fill="#c45fa5"/>
</svg>
