<svg xmlns="http://www.w3.org/2000/svg" width="18" height="18" viewBox="0 0 18 18">
  <g id="sidebar-ratings-9D9D9D" fill="none">
    <path d="M8.052,2.82a1,1,0,0,1,1.9,0l1.08,3.212a1,1,0,0,0,.921.681l3.335.09a1,1,0,0,1,.6,1.778l-2.729,2.2a1,1,0,0,0-.335,1.05l.961,3.4a1,1,0,0,1-1.549,1.082L9.586,14.4a1,1,0,0,0-1.172,0L5.768,16.314a1,1,0,0,1-1.549-1.082l.961-3.4a1,1,0,0,0-.335-1.05l-2.729-2.2a1,1,0,0,1,.6-1.778l3.335-.09a1,1,0,0,0,.921-.681Z" stroke="none"/>
    <path d="M 8.999996185302734 4.707972526550293 L 8.394431114196777 6.509585380554199 C 8.06157112121582 7.49986457824707 7.136260986328125 8.184075355529785 6.091900825500488 8.212164878845215 L 4.115591049194336 8.265295028686523 L 5.786101341247559 9.61136531829834 C 6.56743049621582 10.24094486236572 6.896110534667969 11.27170562744141 6.623451232910156 12.23737525939941 L 6.053590774536133 14.25560188293457 L 7.534411430358887 13.1840648651123 C 7.963530540466309 12.87354469299316 8.470320701599121 12.70941543579102 9.000000953674316 12.70941543579102 C 9.529661178588867 12.70941543579102 10.0364408493042 12.87353515625 10.4655704498291 13.18405532836914 L 11.9464111328125 14.2556037902832 L 11.37655067443848 12.23736476898193 C 11.10389137268066 11.27170562744141 11.43257141113281 10.24094486236572 12.21389102935791 9.611374855041504 L 13.88442420959473 8.265285491943359 L 11.90813064575195 8.212155342102051 C 10.86377143859863 8.18409538269043 9.938441276550293 7.499895095825195 9.605570793151855 6.509594917297363 L 8.999996185302734 4.707972526550293 M 9 2.138645172119141 C 9.397598266601563 2.138645172119141 9.795195579528809 2.365774154663086 9.947880744934082 2.820034980773926 L 11.02740097045898 6.031675338745117 C 11.16110038757324 6.429434776306152 11.52892112731934 6.701424598693848 11.948410987854 6.712695121765137 L 15.2831506729126 6.802345275878906 C 16.21295166015625 6.82734489440918 16.60798072814941 7.997055053710938 15.88371086120605 8.580655097961426 L 13.15505027770996 10.77937507629395 C 12.84304046630859 11.03078460693359 12.71123123168945 11.44415473937988 12.82011032104492 11.82977485656738 L 13.7807502746582 15.23200511932373 C 13.97603416442871 15.92364120483398 13.42661571502686 16.50780868530273 12.81479454040527 16.50780868530273 C 12.6195240020752 16.50780868530273 12.41797542572021 16.44834899902344 12.23215103149414 16.31388473510742 L 9.586231231689453 14.3992748260498 C 9.41131591796875 14.272705078125 9.205658912658691 14.20941925048828 9.000000953674316 14.20941925048828 C 8.794342994689941 14.20941925048828 8.588685989379883 14.272705078125 8.41377067565918 14.3992748260498 L 5.767850875854492 16.31388473510742 C 5.582070350646973 16.44831657409668 5.380428314208984 16.50780868530273 5.185203552246094 16.50780868530273 C 4.573321342468262 16.50780868530273 4.023952484130859 15.92369651794434 4.219250679016113 15.23200511932373 L 5.179890632629395 11.82977485656738 C 5.28877067565918 11.44415473937988 5.156960487365723 11.03078460693359 4.844950675964355 10.77937507629395 L 2.116280555725098 8.580655097961426 C 1.392021179199219 7.997055053710938 1.787050247192383 6.82734489440918 2.716851234436035 6.80235481262207 L 6.051590919494629 6.712704658508301 C 6.471071243286133 6.701424598693848 6.838900566101074 6.429445266723633 6.972600936889648 6.031675338745117 L 8.05211067199707 2.820034980773926 C 8.204800605773926 2.365774154663086 8.602400779724121 2.138645172119141 9 2.138645172119141 Z" stroke="none" fill="#9d9d9d"/>
  </g>
</svg>
