<svg xmlns="http://www.w3.org/2000/svg" width="19.5" height="13.558" viewBox="0 0 19.5 13.558">
  <g id="sidebar-add_group-9D9D9D" data-name="sidebar-add group-9D9D9D" transform="translate(-1486.25 -594.192)">
    <g id="Group_2770" data-name="Group 2770" transform="translate(30 0.103)">
      <path id="Path_175" data-name="Path 175" d="M11.282,18.859V17.573A2.572,2.572,0,0,0,8.711,15H3.57A2.572,2.572,0,0,0,1,17.573v1.286" transform="translate(1459.859 588.038)" fill="none" stroke="#9d9d9d" stroke-linecap="round" stroke-linejoin="round" stroke-width="1.5"/>
      <circle id="Ellipse_100" data-name="Ellipse 100" cx="2.656" cy="2.656" r="2.656" transform="translate(1463.318 594.898)" fill="none" stroke="#9d9d9d" stroke-linecap="round" stroke-linejoin="round" stroke-width="1.5"/>
      <path id="Path_176" data-name="Path 176" d="M21.93,18.989V17.674A2.62,2.62,0,0,0,20,15.13" transform="translate(1453.07 587.908)" fill="none" stroke="#9d9d9d" stroke-linecap="round" stroke-linejoin="round" stroke-width="1.5"/>
      <path id="Path_178" data-name="Path 178" d="M20,18.989V17.674a2.62,2.62,0,0,1,1.93-2.544" transform="translate(1437 587.908)" fill="none" stroke="#9d9d9d" stroke-linecap="round" stroke-linejoin="round" stroke-width="1.5"/>
      <path id="Path_177" data-name="Path 177" d="M16,3.13A2.641,2.641,0,0,1,17.93,5.7,2.641,2.641,0,0,1,16,8.275" transform="translate(1454.498 591.876)" fill="none" stroke="#9d9d9d" stroke-linecap="round" stroke-linejoin="round" stroke-width="1.5"/>
      <path id="Path_179" data-name="Path 179" d="M17.93,3.13A2.641,2.641,0,0,0,16,5.7a2.641,2.641,0,0,0,1.93,2.573" transform="translate(1443.573 591.876)" fill="none" stroke="#9d9d9d" stroke-linecap="round" stroke-linejoin="round" stroke-width="1.5"/>
    </g>
  </g>
</svg>
