<svg xmlns="http://www.w3.org/2000/svg" width="67.002" height="67.002" viewBox="0 0 67.002 67.002">
  <path id="stream-like-outline" d="M58.96,33.772q0-.135,0-.271t0-.271L67,33.147q0,.177,0,.354t0,.354Zm-.072-2.223,8.017-.608q-.027-.353-.061-.7l-8,.776Q58.867,31.28,58.888,31.548Zm-.264-2.205,7.934-1.3q-.057-.351-.122-.7l-7.9,1.471Q58.58,29.077,58.624,29.343Zm-.456-2.173,7.789-1.993q-.088-.345-.184-.687l-7.745,2.159Q58.1,26.908,58.168,27.17Zm-.645-2.126,7.584-2.67q-.118-.335-.243-.667l-7.525,2.831Q57.434,24.789,57.524,25.044Zm-.829-2.061,7.32-3.325q-.147-.323-.3-.642L56.467,22.5Q56.583,22.737,56.694,22.983ZM55.688,21l7-3.953q-.174-.309-.355-.614l-6.916,4.1Q55.556,20.768,55.688,21Zm-1.175-1.885,6.631-4.548q-.2-.292-.407-.58L54.2,18.677Q54.36,18.9,54.513,19.118Zm-1.335-1.776,6.211-5.106q-.225-.274-.456-.542l-6.1,5.236Q53.007,17.134,53.178,17.342Zm-1.484-1.653,5.745-5.625q-.248-.253-.5-.5l-5.625,5.745Q51.506,15.5,51.694,15.689Zm-1.622-1.518,5.236-6.1q-.268-.231-.542-.455L49.66,13.824Q49.868,14,50.072,14.171ZM48.325,12.8l4.686-6.533q-.288-.206-.58-.407l-4.548,6.631Q48.106,12.642,48.325,12.8Zm-1.86-1.215,4.1-6.916q-.3-.181-.613-.355l-3.953,7Q46.234,11.446,46.466,11.584Zm-1.959-1.048,3.48-7.248q-.319-.153-.642-.3l-3.325,7.32Q44.264,10.419,44.507,10.535Zm-2.043-.873L45.3,2.137q-.332-.125-.667-.243l-2.67,7.584Q42.213,9.568,42.464,9.663Zm-2.111-.69,2.159-7.745q-.342-.1-.687-.184L39.832,8.834Q40.094,8.9,40.353,8.973Zm-2.164-.5,1.471-7.9q-.348-.065-.7-.122l-1.3,7.934Q37.925,8.422,38.189,8.471Zm-2.2-.311.776-8q-.351-.034-.7-.061l-.608,8.017Q35.722,8.134,35.989,8.16Zm-2.217-.119L33.855,0,33.5,0l-.354,0,.084,8.04h.541Zm-2.223.072L30.94.1q-.353.027-.7.061l.776,8Q31.28,8.134,31.548,8.114Zm-2.205.264L28.04.444q-.351.058-.7.122l1.471,7.9Q29.077,8.422,29.343,8.378Zm-2.173.456L25.177,1.044q-.345.088-.687.184l2.159,7.745Q26.908,8.9,27.17,8.834Zm-2.126.645-2.67-7.584q-.335.118-.667.243l2.831,7.525Q24.789,9.568,25.044,9.479Zm-2.061.829-3.325-7.32q-.323.147-.642.3l3.48,7.248Q22.737,10.419,22.983,10.308ZM21,11.314l-3.953-7q-.309.174-.614.355l4.1,6.916Q20.768,11.446,21,11.314Zm-1.885,1.175L14.57,5.859q-.292.2-.58.407L18.677,12.8Q18.9,12.642,19.118,12.489Zm-1.776,1.335L12.236,7.613q-.274.225-.542.455l5.236,6.1Q17.134,14,17.342,13.824Zm-1.653,1.484L10.064,9.563q-.253.248-.5.5l5.745,5.625Q15.5,15.5,15.689,15.308ZM14.171,16.93l-6.1-5.236q-.231.269-.455.542l6.211,5.106Q14,17.134,14.171,16.93ZM12.8,18.677,6.266,13.99q-.206.288-.407.58l6.631,4.548Q12.642,18.9,12.8,18.677Zm-1.215,1.86-6.916-4.1q-.181.3-.355.614l7,3.953Q11.446,20.768,11.584,20.536ZM10.535,22.5l-7.248-3.48q-.153.319-.3.642l7.32,3.325Q10.419,22.737,10.535,22.5Zm-.873,2.043L2.137,21.707q-.125.332-.243.667l7.584,2.67Q9.568,24.789,9.663,24.538Zm-.69,2.111L1.228,24.49q-.1.342-.184.687L8.834,27.17Q8.9,26.908,8.973,26.649Zm-.5,2.164-7.9-1.471q-.065.348-.122.7l7.934,1.3Q8.422,29.077,8.471,28.812Zm-.311,2.2-8-.776q-.034.351-.061.7l8.017.608Q8.134,31.28,8.16,31.013ZM8.042,33.23q0,.135,0,.271t0,.271L0,33.855c0-.118,0-.236,0-.354s0-.236,0-.354Zm.072,2.223L.1,36.061q.027.353.061.7l8-.776Q8.134,35.722,8.114,35.454Zm.264,2.2-7.934,1.3q.058.351.122.7l7.9-1.471Q8.422,37.925,8.378,37.658Zm.456,2.174L1.044,41.825q.088.345.184.687l7.745-2.159Q8.9,40.094,8.834,39.832Zm.645,2.126-7.584,2.67q.118.335.243.667l7.525-2.831Q9.568,42.213,9.479,41.958Zm.829,2.061-7.32,3.325q.147.323.3.642l7.248-3.48Q10.419,44.264,10.308,44.019ZM11.314,46l-7,3.953q.174.309.355.613l6.916-4.1Q11.446,46.234,11.314,46Zm1.175,1.885L5.859,52.432q.2.292.407.58L12.8,48.325Q12.642,48.106,12.489,47.884Zm1.335,1.776L7.613,54.766q.225.273.455.542l6.1-5.236Q14,49.868,13.824,49.66Zm1.484,1.653L9.563,56.938q.248.253.5.5l5.625-5.745Q15.5,51.506,15.308,51.313Zm1.621,1.518-5.236,6.1q.269.231.542.456l5.106-6.211Q17.134,53.007,16.93,52.831ZM18.677,54.2,13.99,60.736q.288.207.58.407l4.548-6.631Q18.9,54.36,18.677,54.2Zm1.86,1.215-4.1,6.916q.3.18.614.355l3.953-7Q20.768,55.555,20.536,55.418ZM22.5,56.467l-3.48,7.248q.319.153.642.3l3.325-7.32Q22.737,56.583,22.5,56.467Zm2.043.873-2.831,7.525q.332.125.667.243l2.67-7.584Q24.789,57.434,24.538,57.339Zm2.111.69L24.49,65.774q.342.1.687.184l1.993-7.789Q26.908,58.1,26.649,58.029Zm2.164.5-1.471,7.9q.348.065.7.122l1.3-7.934Q29.077,58.58,28.812,58.531Zm2.2.311-.776,8q.351.034.7.061l.608-8.017Q31.28,58.867,31.013,58.842Zm2.218.119L33.147,67l.354,0,.354,0-.084-8.04H33.23Zm2.223-.072.608,8.017q.353-.027.7-.061l-.776-8Q35.722,58.867,35.454,58.888Zm2.2-.264,1.3,7.934q.351-.057.7-.122l-1.471-7.9Q37.925,58.58,37.658,58.624Zm2.174-.456,1.993,7.789q.345-.088.687-.184l-2.159-7.745Q40.094,58.1,39.832,58.168Zm2.126-.645,2.67,7.584q.335-.118.667-.243l-2.831-7.525Q42.213,57.434,41.958,57.524Zm2.061-.829,3.325,7.32q.323-.147.642-.3l-3.48-7.248Q44.264,56.583,44.019,56.694ZM46,55.688l3.953,7q.309-.174.613-.355l-4.1-6.916Q46.234,55.556,46,55.688Zm1.885-1.175,4.548,6.631q.292-.2.58-.407L48.325,54.2Q48.106,54.36,47.884,54.513Zm1.776-1.335,5.106,6.211q.273-.225.542-.456l-5.236-6.1Q49.868,53.007,49.66,53.178Zm1.653-1.484,5.625,5.745q.253-.248.5-.5l-5.745-5.625Q51.506,51.506,51.313,51.694Zm1.518-1.622,6.1,5.236q.231-.268.456-.542L53.178,49.66Q53.007,49.868,52.831,50.072ZM54.2,48.325l6.533,4.686q.207-.288.407-.58l-6.631-4.548Q54.36,48.106,54.2,48.325Zm1.215-1.86,6.916,4.1q.18-.3.355-.613l-7-3.953Q55.555,46.234,55.418,46.466Zm1.048-1.959,7.248,3.48q.153-.319.3-.642l-7.32-3.325Q56.583,44.264,56.467,44.507Zm.873-2.043L64.865,45.3q.125-.332.243-.667l-7.584-2.67Q57.434,42.213,57.339,42.464Zm.69-2.111,7.745,2.159q.1-.342.184-.687l-7.789-1.993Q58.1,40.094,58.029,40.353Zm.5-2.164,7.9,1.471q.065-.348.122-.7l-7.934-1.3Q58.58,37.925,58.531,38.189Zm.311-2.2,8,.776q.034-.351.061-.7l-8.017-.608Q58.867,35.722,58.842,35.989Z" fill="#fff5f2" fill-rule="evenodd"/>
</svg>
