<svg xmlns="http://www.w3.org/2000/svg" width="23.1" height="15.733" viewBox="0 0 23.1 15.733">
  <g id="stream-like-animated" transform="translate(-45.507 -415.469)">
    <path id="Wines" d="M2.372,4.448A2.3,2.3,0,0,0,4.744,2.224,6.417,6.417,0,0,0,4.015,0H.73A4.2,4.2,0,0,0,0,2.224,2.3,2.3,0,0,0,2.372,4.448Zm0,0V7.117m0,0H.474m1.9,0h1.9" transform="translate(50.431 419.494) rotate(30)" fill="none" stroke="#fff5f2" stroke-linecap="round" stroke-linejoin="round" stroke-width="2"/>
    <path id="Wines-2" data-name="Wines" d="M3.613,4.065A3.506,3.506,0,0,1,7.226,7.452,9.774,9.774,0,0,1,6.115,10.84h-5A6.391,6.391,0,0,1,0,7.452,3.506,3.506,0,0,1,3.613,4.065Zm0,0V0m0,0H.723M3.613,0H6.5" transform="translate(67.241 426.223) rotate(150)" fill="none" stroke="#fff5f2" stroke-linecap="round" stroke-linejoin="round" stroke-width="2"/>
  </g>
</svg>
