<svg xmlns="http://www.w3.org/2000/svg" width="21.75" height="14.75" viewBox="0 0 21.75 14.75">
  <g id="add_to_group" data-name="add to group" transform="translate(-1486.25 -591)">
    <g id="Group_2769" data-name="Group 2769" transform="translate(-3 -3)">
      <line id="Line_82" data-name="Line 82" y2="4" transform="translate(1508 595)" fill="none" stroke="#727272" stroke-linecap="round" stroke-linejoin="round" stroke-width="2"/>
      <line id="Line_83" data-name="Line 83" x1="4" transform="translate(1506 597)" fill="none" stroke="#727272" stroke-linecap="round" stroke-linejoin="round" stroke-width="2"/>
    </g>
    <g id="Group_2770" data-name="Group 2770" transform="translate(30 0.103)">
      <path id="Path_175" data-name="Path 175" d="M10.128,18.436V17.291A2.286,2.286,0,0,0,7.846,15H3.282A2.286,2.286,0,0,0,1,17.291v1.145" transform="translate(1459.436 586.461)" fill="none" stroke="#727272" stroke-linecap="round" stroke-linejoin="round" stroke-width="1.5"/>
      <circle id="Ellipse_100" data-name="Ellipse 100" cx="2.365" cy="2.365" r="2.365" transform="translate(1462.612 594.898)" fill="none" stroke="#727272" stroke-linecap="round" stroke-linejoin="round" stroke-width="1.5"/>
      <path id="Path_176" data-name="Path 176" d="M21.718,18.566V17.4A2.333,2.333,0,0,0,20,15.13" transform="translate(1451.282 586.332)" fill="none" stroke="#727272" stroke-linecap="round" stroke-linejoin="round" stroke-width="1.5"/>
      <path id="Path_178" data-name="Path 178" d="M20,18.566V17.4a2.333,2.333,0,0,1,1.718-2.265" transform="translate(1437 586.332)" fill="none" stroke="#727272" stroke-linecap="round" stroke-linejoin="round" stroke-width="1.5"/>
      <path id="Path_177" data-name="Path 177" d="M16,3.13a2.386,2.386,0,0,1,0,4.581" transform="translate(1452.991 591.865)" fill="none" stroke="#727272" stroke-linecap="round" stroke-linejoin="round" stroke-width="1.5"/>
      <path id="Path_179" data-name="Path 179" d="M17.718,3.13a2.386,2.386,0,0,0,0,4.581" transform="translate(1443.291 591.865)" fill="none" stroke="#727272" stroke-linecap="round" stroke-linejoin="round" stroke-width="1.5"/>
    </g>
  </g>
</svg>
