<svg xmlns="http://www.w3.org/2000/svg" width="20" height="20" viewBox="0 0 20 20">
  <path id="Appbar-Profile-C45FA5" d="M4.215,4.215A8.182,8.182,0,0,1,15.785,15.785l-.009.009a13.832,13.832,0,0,1-3.01-1.671c.093-.1.2-.223.319-.36a6.816,6.816,0,0,0,1.461-4.673,6.263,6.263,0,0,0-1.108-3.977A4.184,4.184,0,0,0,10,3.636,4.184,4.184,0,0,0,6.563,5.114,6.263,6.263,0,0,0,5.455,9.091a6.816,6.816,0,0,0,1.461,4.673c.114.137.225.259.319.36a13.832,13.832,0,0,1-3.01,1.671,8.182,8.182,0,0,1-.009-11.58ZM5.862,17.058a8.182,8.182,0,0,0,8.277,0,15.656,15.656,0,0,1-2.882-1.8.915.915,0,0,1-.081-.072,1.45,1.45,0,0,1-.442-.835,1.328,1.328,0,0,1,.22-.9A3.406,3.406,0,0,1,11.327,13h0l.05-.054c.1-.112.2-.22.31-.347a5.024,5.024,0,0,0,1.039-3.509,4.523,4.523,0,0,0-.71-2.841A2.386,2.386,0,0,0,10,5.455a2.386,2.386,0,0,0-2.017.8,4.523,4.523,0,0,0-.71,2.841A5.024,5.024,0,0,0,8.312,12.6c.106.127.206.234.31.347h0l.05.054h0a3.4,3.4,0,0,1,.372.456,1.328,1.328,0,0,1,.22.9,1.45,1.45,0,0,1-.442.835.915.915,0,0,1-.081.072A15.654,15.654,0,0,1,5.862,17.058ZM15.556,1.685A10,10,0,0,0,10,0H9.091V.041a10,10,0,1,0,6.465,1.644Z" fill="#c45fa5" fill-rule="evenodd"/>
</svg>
