<svg xmlns="http://www.w3.org/2000/svg" width="28" height="14" viewBox="0 0 28 14">
  <path id="arrow-FFFFFF" d="M20.513.342a1.2,1.2,0,0,0,0,1.65l3.676,3.842H1.116a1.168,1.168,0,0,0,0,2.333H24.189l-3.676,3.842a1.2,1.2,0,0,0,0,1.65,1.082,1.082,0,0,0,1.579,0l5.581-5.833.082-.1.008-.01-.089.105a1.163,1.163,0,0,0,.108-.13q.03-.042.056-.087l.024-.043c.012-.023.024-.047.035-.071s.017-.04.025-.06.017-.046.024-.07.011-.035.015-.053.012-.05.017-.076.007-.041.01-.061.006-.045.008-.068,0-.055,0-.082c0-.008,0-.015,0-.023V6.979q0-.041,0-.083L28,7a1.23,1.23,0,0,0-.012-.174c0-.02-.006-.04-.01-.06s-.011-.051-.017-.076-.01-.036-.016-.054-.015-.046-.024-.069-.016-.041-.025-.061-.022-.048-.035-.071l-.024-.042q-.026-.045-.056-.087l-.019-.026a1.184,1.184,0,0,0-.089-.105L22.092.342a1.082,1.082,0,0,0-1.579,0" fill="#fff"/>
</svg>
