<svg xmlns="http://www.w3.org/2000/svg" width="40" height="40" viewBox="0 0 40 40">
  <path id="beef" d="M37.566,38.111a6.608,6.608,0,0,1-4.155,1.851A13.264,13.264,0,0,1,27.54,39.1a21.436,21.436,0,0,1-6.28-3.6,11,11,0,0,0-3.472-1.91,16.757,16.757,0,0,0-3.725-.838q-1.775-.176-3.491-.312a15.491,15.491,0,0,1-3.218-.584,5.386,5.386,0,0,1-2.4-1.384,16.813,16.813,0,0,1-4.31-8.008,21.283,21.283,0,0,1-.137-9.7A15.893,15.893,0,0,1,4.68,4.752,15.628,15.628,0,0,1,12.58.524a20.341,20.341,0,0,1,9.558.137,16.377,16.377,0,0,1,7.9,4.4,25.308,25.308,0,0,1,3.842,5.261,47.624,47.624,0,0,1,3.394,7.327,52.708,52.708,0,0,1,2.243,7.872,22.335,22.335,0,0,1,.332,7.307A8.967,8.967,0,0,1,37.566,38.111ZM28.749,7.519a16.772,16.772,0,0,0-5.13-3.547,16.207,16.207,0,0,0-6.1-1.442,15.771,15.771,0,0,0-5.969,1.014A13.654,13.654,0,0,0,6.592,6.662,13.95,13.95,0,0,0,2.534,17.5a20.027,20.027,0,0,0,.975,5.475A26.82,26.82,0,0,0,5.577,27.9a3.445,3.445,0,0,0,2.067,1.481,14.248,14.248,0,0,0,3.413.584q1.93.117,3.959.234a20.7,20.7,0,0,1,4.1.662A8.8,8.8,0,0,1,22.507,32.5a27.261,27.261,0,0,0,5.169,3.43,10.874,10.874,0,0,0,4.389,1.227,4.253,4.253,0,0,0,3.316-1.305,7.792,7.792,0,0,0,1.99-4.559,18.441,18.441,0,0,0-.312-6.255,46.516,46.516,0,0,0-1.971-6.723,38.562,38.562,0,0,0-2.964-6.235A24.27,24.27,0,0,0,28.749,7.519ZM22.507,30.005a9.347,9.347,0,0,0-3.862-1.754,24.918,24.918,0,0,0-4.623-.682,38.663,38.663,0,0,1-4.077-.389,3.843,3.843,0,0,1-2.418-.955q-2.3-2.883-2.5-8.262A12.135,12.135,0,0,1,8.5,8.61,11.568,11.568,0,0,1,12.736,5.9a13.2,13.2,0,0,1,10.358.372A14.76,14.76,0,0,1,27.5,9.352q2.769,2.805,5.13,8.807a29.507,29.507,0,0,1,2.359,10.6,16.657,16.657,0,0,1-.215,3.02,3.876,3.876,0,0,1-1.033,1.969Q30.778,36.747,22.507,30.005ZM13.769,10.013a3.58,3.58,0,0,0-2.652,1.111,3.652,3.652,0,0,0-1.093,2.65A3.578,3.578,0,0,0,11.117,16.4a3.768,3.768,0,0,0,5.3,0,3.578,3.578,0,0,0,1.093-2.631,3.652,3.652,0,0,0-1.093-2.65,3.58,3.58,0,0,0-2.652-1.111Z" transform="translate(-0.011 -0.021)" fill="#fff"/>
</svg>
