<svg xmlns="http://www.w3.org/2000/svg" width="32" height="32" viewBox="0 0 32 32">
  <g id="cheese" transform="translate(-0.304 0)">
    <path id="Path_240" data-name="Path 240" d="M23.955,29.195a4.158,4.158,0,0,0-.209-.455c-.05-.1-.109-.186-.167-.278-.041-.066-.082-.131-.127-.195-.066-.1-.136-.187-.21-.277-.042-.052-.088-.1-.132-.151a4.5,4.5,0,0,0-.447-.434c-.057-.049-.112-.1-.172-.146-.075-.057-.153-.107-.231-.159s-.185-.119-.28-.173c-.065-.036-.13-.072-.2-.1a3.644,3.644,0,0,0-.521-.212,3.291,3.291,0,0,0-.432-.1l-.089-.013a2.805,2.805,0,0,0-.85.009l-.019,0a2.311,2.311,0,0,0-.972.407c-.028.021-.048.05-.076.071a2.142,2.142,0,0,0-.213.2,2.032,2.032,0,0,0-.141.151,2.283,2.283,0,0,0-.237.373s0,0,0,.007a2.669,2.669,0,0,0-.276,1.208A4.3,4.3,0,0,0,20.9,32.805a3.119,3.119,0,0,0,.921.144,2.328,2.328,0,0,0,2.386-2.465,3.609,3.609,0,0,0-.253-1.289Zm-4.446-1.166a.946.946,0,0,1,.329-.222,1.147,1.147,0,0,1,.2-.069,1.314,1.314,0,0,1,.159-.022,1.463,1.463,0,0,1,.245-.012c.023,0,.046,0,.07.006a1.958,1.958,0,0,1,.392.077,2.531,2.531,0,0,1,.373.154l.074.038a3.079,3.079,0,0,1,.686.506l.032.031a3.36,3.36,0,0,1,.515.666c.021.036.042.072.062.109s.022.049.035.073a1.313,1.313,0,0,1-1.414.261,3.135,3.135,0,0,1-1.781-1.57C19.492,28.044,19.5,28.037,19.509,28.028Zm3.023,3.48a1.408,1.408,0,0,1-1.268.122,3.174,3.174,0,0,1-1.829-1.683A4.067,4.067,0,0,0,20.9,30.8a3.1,3.1,0,0,0,.913.143,2.486,2.486,0,0,0,1.147-.274A1.154,1.154,0,0,1,22.532,31.509Z" transform="translate(-7.042 -10.786)" fill="#fff"/>
    <path id="Path_241" data-name="Path 241" d="M39.858,33.767a2.02,2.02,0,0,0-1.818.243,1.9,1.9,0,0,0-.736,1.558,3.2,3.2,0,0,0,2.19,2.888,2.373,2.373,0,0,0,.7.109,1.863,1.863,0,0,0,1.117-.352,1.9,1.9,0,0,0,.736-1.557A3.206,3.206,0,0,0,39.858,33.767Zm.723,3.456a.807.807,0,0,1-.724.058,1.969,1.969,0,0,1-1.324-1.713A.685.685,0,0,1,38.77,35a.641.641,0,0,1,.384-.114,1.147,1.147,0,0,1,.34.056,1.97,1.97,0,0,1,1.324,1.714A.684.684,0,0,1,40.581,37.223Z" transform="translate(-14.732 -13.672)" fill="#fff"/>
    <path id="Path_242" data-name="Path 242" d="M11.858,31.767a2.02,2.02,0,0,0-1.818.243A1.9,1.9,0,0,0,9.3,33.567a3.2,3.2,0,0,0,2.19,2.888,2.373,2.373,0,0,0,.7.109,1.863,1.863,0,0,0,1.117-.352,1.9,1.9,0,0,0,.736-1.557A3.206,3.206,0,0,0,11.858,31.767Zm.723,3.456a.809.809,0,0,1-.724.058,1.969,1.969,0,0,1-1.324-1.713A.685.685,0,0,1,10.77,33a.641.641,0,0,1,.384-.114,1.147,1.147,0,0,1,.34.056,1.97,1.97,0,0,1,1.324,1.714A.684.684,0,0,1,12.581,35.223Z" transform="translate(-3.583 -12.86)" fill="#fff"/>
    <path id="Path_243" data-name="Path 243" d="M33.243,40.721a1.529,1.529,0,0,0-1.373.19A1.446,1.446,0,0,0,31.3,42.1a2.309,2.309,0,0,0,1.575,2.083,1.755,1.755,0,0,0,.519.081,1.426,1.426,0,0,0,.854-.271,1.448,1.448,0,0,0,.566-1.186A2.311,2.311,0,0,0,33.243,40.721ZM33.521,43a.34.34,0,0,1-.279.006,1.08,1.08,0,0,1-.709-.908A.26.26,0,0,1,32.6,41.9a.2.2,0,0,1,.122-.031.548.548,0,0,1,.157.026,1.079,1.079,0,0,1,.709.908A.263.263,0,0,1,33.521,43Z" transform="translate(-12.326 -16.615)" fill="#fff"/>
    <path id="Path_244" data-name="Path 244" d="M32.166,32.29a1.756,1.756,0,0,0,.52.081,1.427,1.427,0,0,0,.854-.271,1.446,1.446,0,0,0,.566-1.186,2.309,2.309,0,0,0-1.575-2.083,1.524,1.524,0,0,0-1.372.19,1.448,1.448,0,0,0-.566,1.186A2.307,2.307,0,0,0,32.166,32.29Zm-.279-2.278a.206.206,0,0,1,.122-.031.548.548,0,0,1,.157.026,1.08,1.08,0,0,1,.709.908.26.26,0,0,1-.066.195.342.342,0,0,1-.279.006,1.079,1.079,0,0,1-.709-.908A.257.257,0,0,1,31.887,30.012Z" transform="translate(-12.042 -11.652)" fill="#fff"/>
    <path id="Path_245" data-name="Path 245" d="M8.962,20.316a2.475,2.475,0,0,0-1.688-2.231,1.613,1.613,0,0,0-1.455.2,1.529,1.529,0,0,0-.6,1.254A2.473,2.473,0,0,0,6.91,21.77a1.864,1.864,0,0,0,.552.086,1.507,1.507,0,0,0,.9-.285A1.527,1.527,0,0,0,8.962,20.316Zm-1.327.263a.423.423,0,0,1-.36.015,1.236,1.236,0,0,1-.822-1.056.336.336,0,0,1,.1-.264.289.289,0,0,1,.172-.046.654.654,0,0,1,.189.031,1.236,1.236,0,0,1,.822,1.057A.33.33,0,0,1,7.635,20.58Z" transform="translate(-1.893 -7.297)" fill="#fff"/>
    <path id="Path_246" data-name="Path 246" d="M29.905,21.114A.9.9,0,0,1,29.948,21a.987.987,0,0,1,.041-.11l0-.007a.794.794,0,0,1,.121-.166.732.732,0,0,1,.216-.156c.016-.008.034-.014.051-.021a.941.941,0,0,1,.256-.064l.037-.006a1.23,1.23,0,0,1,.242.007h.029c.007,0,.015,0,.022.005a1.546,1.546,0,0,1,.231.056c.048.016.1.038.154.06.032.013.065.024.1.038a.558.558,0,0,0,.106.032c.013,0,.025.009.037.011a.615.615,0,0,0,.132.007h.016a.583.583,0,0,0,.139-.027h.008a.573.573,0,0,0,.085-.04.528.528,0,0,0,.053-.025.613.613,0,0,0,.277-.5V18.759a4.213,4.213,0,0,0-1.634-3.311L20.179,5.636a.608.608,0,0,0-.8-.027.835.835,0,0,1-.789.087,2.041,2.041,0,0,1-1.383-1.772.869.869,0,0,1,.088-.4.593.593,0,0,0-.124-.7l-1.8-1.682a.627.627,0,0,0-.049-.041A4.571,4.571,0,0,0,10.909.267L1.979,4.527A2.805,2.805,0,0,0,.3,7.126v9.407a.6.6,0,0,0,.217.459.612.612,0,0,0,.5.128,1.322,1.322,0,0,1,.635.046,2.467,2.467,0,0,1,1.672,2.144.921.921,0,0,1-.335.774,1.1,1.1,0,0,1-.98.087,2.218,2.218,0,0,1-.721-.4.61.61,0,0,0-.64-.073A.6.6,0,0,0,.3,20.24v1.291a2.785,2.785,0,0,0,2.116,2.7l26.375,7.682a2.836,2.836,0,0,0,2.424-.508,2.762,2.762,0,0,0,1.086-2.2V24.228a.589.589,0,0,0-.144-.387.6.6,0,0,0-.364-.2c-.013,0-.025-.007-.038-.01a2.425,2.425,0,0,1-1.425-.959h0a2.426,2.426,0,0,1-.378-.759,2.033,2.033,0,0,1-.059-.226,1.716,1.716,0,0,1-.023-.308,1.364,1.364,0,0,1,.017-.145A1.054,1.054,0,0,1,29.905,21.114ZM2.481,5.612l8.932-4.26a3.354,3.354,0,0,1,3.154.679l1.491,1.394a2.153,2.153,0,0,0-.057.5,3.237,3.237,0,0,0,2.234,2.912,2.161,2.161,0,0,0,1.439-.029L29.285,15.8,18.9,12.737a3.3,3.3,0,0,0-2.138-2.26,2.076,2.076,0,0,0-1.846.243,1.747,1.747,0,0,0-.558.681L2.191,7.821a.779.779,0,0,1-.645-.757.526.526,0,0,0-.025-.078A1.609,1.609,0,0,1,2.481,5.612Zm15.3,7.777a.719.719,0,0,1-.255.6.865.865,0,0,1-.77.063,1.648,1.648,0,0,1-.275-.112,2.122,2.122,0,0,1-1.08-1.381,1.359,1.359,0,0,1-.028-.273c0-.013.01-.078.011-.091s0-.027,0-.041a.654.654,0,0,1,.247-.475.69.69,0,0,1,.414-.121,1.226,1.226,0,0,1,.358.058,2.065,2.065,0,0,1,1.368,1.628.133.133,0,0,1,0,.016ZM31.1,29.207a1.58,1.58,0,0,1-.622,1.26,1.61,1.61,0,0,1-1.363.3L2.736,23.083a1.6,1.6,0,0,1-1.224-1.551v-.266c.046.017.093.033.139.047A2.305,2.305,0,0,0,3.7,21.045a2.076,2.076,0,0,0,.826-1.735,3.652,3.652,0,0,0-2.522-3.284,2.689,2.689,0,0,0-.5-.1V8.861a1.893,1.893,0,0,0,.393.118L14.188,12.6c0,.029.013.057.018.085.01.063.025.125.04.187.02.086.043.17.071.255.021.064.045.126.071.188.033.081.069.16.11.238.031.062.065.122.1.182.045.076.094.148.145.22s.081.114.125.17.117.135.178.2.094.1.145.149c.068.064.14.121.213.179.051.041.1.084.155.122a3,3,0,0,0,.262.159c.048.027.094.059.144.084a2.846,2.846,0,0,0,.437.177,2.458,2.458,0,0,0,.452.09c.04,0,.08.007.12.01s.094.011.141.011a2.181,2.181,0,0,0,.243-.017c.015,0,.031,0,.046,0a1.961,1.961,0,0,0,.4-.1c.03-.011.059-.023.088-.035a1.763,1.763,0,0,0,.359-.2,1.736,1.736,0,0,0,.284-.267c.022-.025.043-.051.064-.078a1.743,1.743,0,0,0,.192-.3c0-.01.011-.017.016-.027a1.881,1.881,0,0,0,.11-.292l10.9,3.209A1.61,1.61,0,0,1,31.1,18.758v.534a2.508,2.508,0,0,0-.542-.013,2.225,2.225,0,0,0-.43.082c-.048.014-.093.033-.139.051a1.975,1.975,0,0,0-.276.125c-.043.024-.085.048-.126.075a1.978,1.978,0,0,0-.259.205c-.021.019-.045.032-.065.052s-.01.016-.017.023-.024.019-.034.031h0a2.032,2.032,0,0,0-.148.211,1.989,1.989,0,0,0-.12.171c-.006.011-.014.019-.02.029a2.135,2.135,0,0,0-.113.294c-.018.051-.043.1-.057.15a2.351,2.351,0,0,0-.064.413c0,.04-.014.077-.016.118,0,.007,0,.013,0,.019a2.865,2.865,0,0,0,.034.476c0,.024,0,.047,0,.072a3.18,3.18,0,0,0,.13.5c0,.012,0,.024.009.035a2.278,2.278,0,0,0,.092.213c.031.072.06.143.1.213.013.027.023.054.037.081.034.064.075.124.115.184s.069.11.106.164h0a1.261,1.261,0,0,0,.074.112,3.623,3.623,0,0,0,.3.353c.013.015.039.047.054.061.042.042.087.078.13.118l.061.056a3.838,3.838,0,0,0,.312.251l.057.042a3.545,3.545,0,0,0,.347.212c.018.01.035.021.053.03a3.327,3.327,0,0,0,.42.183v4.518Z" fill="#fff"/>
  </g>
</svg>
