<svg xmlns="http://www.w3.org/2000/svg" width="24" height="18" viewBox="0 0 24 18">
  <g id="Email-C45FA5" transform="translate(0 -49.6)">
    <path id="Path_10" data-name="Path 10" d="M21.8,49.6H2.2A2.112,2.112,0,0,0,0,51.653V65.547A2.112,2.112,0,0,0,2.2,67.6H21.8A2.143,2.143,0,0,0,24,65.547V51.653A2.112,2.112,0,0,0,21.8,49.6ZM20.63,51.462,12,58.672l-8.579-7.21Zm1.379,14.085a.213.213,0,0,1-.2.191H2.2a.213.213,0,0,1-.2-.191v-12.7l9.345,7.783a1.042,1.042,0,0,0,1.328,0l9.345-7.783v12.7Z" fill="#c45fa5"/>
  </g>
</svg>
