<svg xmlns="http://www.w3.org/2000/svg" width="76.13" height="319.54" viewBox="0 0 76.13 319.54">
  <g id="logo" transform="translate(0.01)">
    <g id="Mark_FullColor">
      <path id="Path_258" data-name="Path 258" d="M39.85,235.45c-40.11.39-36.25,20.88-36.2,5.21.05-19.14,0-12.11.13-41.48a36.17,36.17,0,1,1,36.07,36.27Z" fill="#f79b6d"/>
      <path id="Path_259" data-name="Path 259" d="M36.77,246.2c40.66-.39,36.73-21.16,36.69-5.28-.06,19.4,0,12.27-.13,42.05A36.67,36.67,0,1,1,36.77,246.2Z" fill="#f79b6d"/>
      <path id="Path_260" data-name="Path 260" d="M51.08,69.33c0,6.16,4.58,12.55,7.17,15.38A61.35,61.35,0,0,1,69.08,100.9a34.41,34.41,0,0,1,1.52,3.18,36.35,36.35,0,0,1,2.75,13.63.2.2,0,0,1,0,.07h0V118c.06,29.71,0,22.6.08,41.95,0,15.84,4-4.87-36.59-5.3A36.74,36.74,0,0,1,.21,118.1,36.37,36.37,0,0,1,5.74,98.7a55.74,55.74,0,0,1,10.2-14.15A20.28,20.28,0,0,0,22.1,70.43c.58-17.29,1.57-34.56,2.25-51.85.17-4.47-.23-9-.31-13.44C24,1,26.81.08,30.16,0H43c3.35.08,6.19,1,6.12,5.14-.08,4.48-.49,9-.31,13.44.68,17.29,1.66,34.56,2.25,51.85" fill="#f79b6d"/>
    </g>
  </g>
</svg>
