<svg xmlns="http://www.w3.org/2000/svg" width="20" height="19" viewBox="0 0 20 19">
  <path id="next-stream" d="M11.5.488a1.634,1.634,0,0,1,0,2.357L5.853,8.333H17.286a1.667,1.667,0,1,1,0,3.333H5.853L11.5,17.155a1.634,1.634,0,0,1,0,2.357,1.749,1.749,0,0,1-2.424,0L.5,11.179l-.125-.136-.012-.014.137.151a1.694,1.694,0,0,1-.165-.186q-.046-.06-.086-.124c-.013-.02-.025-.04-.037-.061s-.036-.067-.053-.1-.027-.057-.038-.086-.026-.066-.037-.1-.016-.05-.024-.076-.019-.072-.027-.109-.011-.058-.016-.087-.009-.065-.012-.1S0,10.071,0,10.032c0-.011,0-.021,0-.032V9.969q0-.059.006-.118L0,10a1.637,1.637,0,0,1,.019-.248c0-.028.01-.057.016-.086s.016-.073.027-.108.015-.052.024-.077.023-.066.037-.1.025-.058.039-.087.035-.069.054-.1.024-.041.036-.061q.04-.064.086-.124l.028-.037A1.729,1.729,0,0,1,.5,8.822L9.074.488a1.749,1.749,0,0,1,2.424,0" transform="translate(0 19) rotate(-90)" fill="rgba(255,255,255,0.6)"/>
</svg>
