<svg xmlns="http://www.w3.org/2000/svg" width="20" height="19" viewBox="0 0 20 19">
  <path id="prev-stream" d="M11.5,19.512a1.634,1.634,0,0,0,0-2.357L5.853,11.667H17.286a1.667,1.667,0,1,0,0-3.333H5.853L11.5,2.845a1.634,1.634,0,0,0,0-2.357,1.749,1.749,0,0,0-2.424,0L.5,8.821l-.125.136-.012.014L.5,8.821a1.694,1.694,0,0,0-.165.186q-.046.06-.086.124c-.013.02-.025.04-.037.061s-.036.067-.053.1-.027.057-.038.086-.026.066-.037.1-.016.05-.024.076-.019.072-.027.109-.011.058-.016.087-.009.065-.012.1S0,9.929,0,9.968C0,9.979,0,9.989,0,10v.031q0,.059.006.118L0,10a1.637,1.637,0,0,0,.019.248c0,.028.01.057.016.086s.016.073.027.108.015.052.024.077.023.066.037.1.025.058.039.087.035.069.054.1.024.041.036.061q.04.064.086.124l.028.037a1.729,1.729,0,0,0,.137.15l8.571,8.333a1.749,1.749,0,0,0,2.424,0" transform="translate(20) rotate(90)" fill="rgba(255,255,255,0.6)"/>
</svg>
