<svg id="progress-spinner" xmlns="http://www.w3.org/2000/svg" width="44" height="44" viewBox="0 0 44 44">
  <path id="Surface" d="M22,44A21.982,21.982,0,0,1,0,22H4a18,18,0,0,0,34.585,7.007A17.995,17.995,0,0,0,22,4V0a22.006,22.006,0,0,1,8.564,42.271A21.864,21.864,0,0,1,22,44Z" transform="translate(0)" fill="#c45fa5"/>
  <path id="Wines" d="M11,11.5a3.881,3.881,0,0,0,4-3.75A10.821,10.821,0,0,0,13.769,4H8.231A7.075,7.075,0,0,0,7,7.75,3.881,3.881,0,0,0,11,11.5Zm0,0V16m0,0H7.8M11,16h3.2" transform="translate(7.151 22.707) rotate(-45)" fill="#961f63" stroke="#961f63" stroke-linecap="round" stroke-linejoin="round" stroke-width="2"/>
</svg>
