<svg xmlns="http://www.w3.org/2000/svg" width="12" height="18" viewBox="0 0 12 18">
  <g id="repost-C45FA5" transform="translate(-43 -10)">
    <path id="Path_207" data-name="Path 207" d="M61.846,37.919a.686.686,0,0,1,.679-.693h1.788c3.78,0,7.057,2.434,7.057,6.354a.679.679,0,1,1-1.359,0c0-2.935-2.434-4.968-5.7-4.968H62.525A.686.686,0,0,1,61.846,37.919Z" transform="translate(-16.369 -24.48)" fill="#c45fa5" fill-rule="evenodd"/>
    <path id="Path_208" data-name="Path 208" d="M60.792,10.2a.7.7,0,0,1,0,.98L58.6,13.418l2.191,2.235a.7.7,0,0,1,0,.98.67.67,0,0,1-.961,0L56.959,13.7a.407.407,0,0,1,0-.57l2.872-2.93A.67.67,0,0,1,60.792,10.2Z" transform="translate(-12.457)" fill="#c45fa5" fill-rule="evenodd"/>
    <path id="Path_209" data-name="Path 209" d="M52.524,97.718a.686.686,0,0,1-.679.693H50.057c-3.78,0-7.057-2.434-7.057-6.354a.679.679,0,1,1,1.359,0c0,2.935,2.434,4.968,5.7,4.968h1.788A.686.686,0,0,1,52.524,97.718Z" transform="translate(0 -73.157)" fill="#c45fa5" fill-rule="evenodd"/>
    <path id="Path_210" data-name="Path 210" d="M101.911,127.332a.7.7,0,0,1,0-.98l2.191-2.235-2.191-2.235a.7.7,0,0,1,0-.98.67.67,0,0,1,.961,0l2.872,2.93a.407.407,0,0,1,0,.57l-2.872,2.93A.67.67,0,0,1,101.911,127.332Z" transform="translate(-52.245 -99.535)" fill="#c45fa5" fill-rule="evenodd"/>
  </g>
</svg>
