<svg xmlns="http://www.w3.org/2000/svg" width="25.5" height="25.5" viewBox="0 0 25.5 25.5">
  <g id="settings-gear-rounded-FFFFFF-90" transform="translate(-0.25 -0.25)">
    <circle id="Ellipse_101" data-name="Ellipse 101" cx="3" cy="3" r="3" transform="translate(10 10)" fill="none" stroke="rgba(255,255,255,0.9)" stroke-linecap="round" stroke-linejoin="round" stroke-width="1.5"/>
    <path id="Path_181" data-name="Path 181" d="M21.073,16.273a1.8,1.8,0,0,0,.36,1.985l.065.065a2.183,2.183,0,1,1-3.087,3.087l-.065-.065a1.815,1.815,0,0,0-3.076,1.287v.185a2.182,2.182,0,1,1-4.364,0v-.1a1.8,1.8,0,0,0-1.178-1.647,1.8,1.8,0,0,0-1.985.36l-.065.065a2.183,2.183,0,1,1-3.087-3.087l.065-.065a1.815,1.815,0,0,0-1.287-3.076H3.182a2.182,2.182,0,1,1,0-4.364h.1A1.8,1.8,0,0,0,4.927,9.727a1.8,1.8,0,0,0-.36-1.985L4.5,7.676A2.183,2.183,0,1,1,7.589,4.589l.065.065a1.8,1.8,0,0,0,1.985.36h.087a1.8,1.8,0,0,0,1.091-1.647V3.182a2.182,2.182,0,1,1,4.364,0v.1a1.815,1.815,0,0,0,3.076,1.287l.065-.065a2.183,2.183,0,1,1,3.087,3.087l-.065.065a1.8,1.8,0,0,0-.36,1.985v.087a1.8,1.8,0,0,0,1.647,1.091h.185a2.182,2.182,0,1,1,0,4.364h-.1A1.8,1.8,0,0,0,21.073,16.273Z" transform="translate(0 0)" fill="none" stroke="rgba(255,255,255,0.9)" stroke-linecap="round" stroke-linejoin="round" stroke-width="1.5"/>
  </g>
</svg>
