<svg xmlns="http://www.w3.org/2000/svg" width="16" height="18" viewBox="0 0 16 18">
  <path id="share-C45FA5" d="M13.029,1.385A1.615,1.615,0,1,0,14.629,3,1.608,1.608,0,0,0,13.029,1.385ZM10.057,3a2.972,2.972,0,1,1,2.971,3A2.946,2.946,0,0,1,11,5.189L5.922,8.179a3.059,3.059,0,0,1,.021.359A3.016,3.016,0,0,1,5.713,9.7L11,12.807A2.946,2.946,0,0,1,13.029,12a3,3,0,1,1-2.971,3,3.019,3.019,0,0,1,.183-1.038L4.908,10.826l-.008,0a2.943,2.943,0,0,1-1.929.718A3,3,0,1,1,5.436,6.862l4.8-2.829A3.02,3.02,0,0,1,10.057,3ZM2.971,6.923a1.615,1.615,0,1,0,1.6,1.615A1.608,1.608,0,0,0,2.971,6.923ZM11.429,15a1.6,1.6,0,1,1,1.6,1.615A1.608,1.608,0,0,1,11.429,15Z" fill="#c45fa5" fill-rule="evenodd"/>
</svg>
