<svg xmlns="http://www.w3.org/2000/svg" xmlns:xlink="http://www.w3.org/1999/xlink" width="50" height="50" viewBox="0 0 50 50">
  <defs>
    <filter id="Ellipse_118" x="0" y="0" width="50" height="50" filterUnits="userSpaceOnUse">
      <feOffset dy="1" input="SourceAlpha"/>
      <feGaussianBlur stdDeviation="1" result="blur"/>
      <feFlood flood-opacity="0.161"/>
      <feComposite operator="in" in2="blur"/>
      <feComposite in="SourceGraphic"/>
    </filter>
  </defs>
  <g id="share-twitter" transform="translate(-2136 -1430)">
    <g transform="matrix(1, 0, 0, 1, 2136, 1430)" filter="url(#Ellipse_118)">
      <circle id="Ellipse_118-2" data-name="Ellipse 118" cx="22" cy="22" r="22" transform="translate(3 2)" fill="#fff"/>
    </g>
    <g id="Layer_2" data-name="Layer 2" transform="translate(2146 1441.75)">
      <g id="Layer_1" data-name="Layer 1">
        <path id="Path_220" data-name="Path 220" d="M0,21.738v-.12a12.34,12.34,0,0,0,8.71-2.29c-.1-.085-.12-.12-.157-.133-.12-.029-.24-.046-.352-.067a6.176,6.176,0,0,1-4.68-3.643c-.27-.584-.217-.644.407-.632a5.1,5.1,0,0,0,1.694-.11c-.31-.13-.51-.208-.7-.3a6.094,6.094,0,0,1-3.75-5.171c-.067-.631.023-.675.607-.449a4.849,4.849,0,0,0,1.849.424c-.254-.24-.44-.414-.62-.592A6.171,6.171,0,0,1,1.692,1.787c.292-.671.394-.7.869-.171A17.319,17.319,0,0,0,13.85,7.46c.736.082.786.04.72-.721a6.068,6.068,0,0,1,.893-3.787A6.487,6.487,0,0,1,19.8,0h1.92a6.741,6.741,0,0,1,3.194,1.561.911.911,0,0,0,.977.219,14.182,14.182,0,0,0,2.629-1c.18-.09.4-.345.577-.148.154.168-.048.411-.133.6A6.43,6.43,0,0,1,27.7,3.05c-.172.181-.431.287-.532.638A12.056,12.056,0,0,0,30,2.882v.24A14.309,14.309,0,0,1,27.36,5.9a.881.881,0,0,0-.329.788,14.714,14.714,0,0,1-.36,3.633c-1.591,6.787-5.5,11.473-12.28,13.557a27.552,27.552,0,0,1-3.232.625H7.8c-.155-.03-.31-.068-.466-.089A16.85,16.85,0,0,1,0,21.738Z" fill="#1da1f2"/>
      </g>
    </g>
  </g>
</svg>
