<svg xmlns="http://www.w3.org/2000/svg" xmlns:xlink="http://www.w3.org/1999/xlink" width="50" height="50" viewBox="0 0 50 50">
  <defs>
    <linearGradient id="linear-gradient" x1="0.5" x2="0.5" y2="1" gradientUnits="objectBoundingBox">
      <stop offset="0" stop-color="#8bfc6c"/>
      <stop offset="1" stop-color="#0cd914"/>
    </linearGradient>
    <filter id="Ellipse_118" x="0" y="0" width="50" height="50" filterUnits="userSpaceOnUse">
      <feOffset dy="1" input="SourceAlpha"/>
      <feGaussianBlur stdDeviation="1" result="blur"/>
      <feFlood flood-opacity="0.161"/>
      <feComposite operator="in" in2="blur"/>
      <feComposite in="SourceGraphic"/>
    </filter>
  </defs>
  <g id="share-message" transform="translate(-1813 -1348)">
    <g transform="matrix(1, 0, 0, 1, 1813, 1348)" filter="url(#Ellipse_118)">
      <circle id="Ellipse_118-2" data-name="Ellipse 118" cx="22" cy="22" r="22" transform="translate(3 2)" fill="url(#linear-gradient)"/>
    </g>
    <g id="Group_2963" data-name="Group 2963">
      <path id="message" d="M3.886,14.966l.988.152.086-.559L4.525,14.2ZM3.052,20.4l-.988-.152h0Zm.8.476.638.769h0Zm4.53-3.755.216-.976-.478-.106-.377.312ZM20,9.2c0,3.8-3.836,7.2-9,7.2v2c5.881,0,11-3.944,11-9.2ZM11,2c5.164,0,9,3.4,9,7.2h2C22,3.944,16.881,0,11,0ZM2,9.2C2,5.4,5.836,2,11,2V0C5.119,0,0,3.944,0,9.2Zm2.525,5A6.513,6.513,0,0,1,2,9.2H0a8.506,8.506,0,0,0,3.247,6.533ZM4.04,20.551l.834-5.433-1.977-.3-.834,5.433Zm-.822-.445a.522.522,0,0,1,.588-.048.494.494,0,0,1,.235.493l-1.977-.3a1.5,1.5,0,0,0,2.431,1.4Zm4.53-3.755-4.53,3.755,1.277,1.539,4.53-3.755ZM11,16.4a11.089,11.089,0,0,1-2.4-.259L8.17,18.1A13.087,13.087,0,0,0,11,18.4Z" transform="translate(1827 1361)" fill="#fff"/>
      <ellipse id="Ellipse_119" data-name="Ellipse 119" cx="9" cy="8" rx="9" ry="8" transform="translate(1829 1362)" fill="#fff"/>
      <path id="Polygon_12" data-name="Polygon 12" d="M2.5,0,5,5H0Z" transform="translate(1833.33 1381.915) rotate(-150)" fill="#fff"/>
    </g>
  </g>
</svg>
