<svg xmlns="http://www.w3.org/2000/svg" width="20" height="16" viewBox="0 0 20 16">
  <path id="Twitter-FFFFFF" d="M6.29,16A11.5,11.5,0,0,0,17.965,4.505c0-.175,0-.35-.012-.523A8.265,8.265,0,0,0,20,1.891a8.273,8.273,0,0,1-2.356.636,4.07,4.07,0,0,0,1.8-2.235,8.3,8.3,0,0,1-2.606.981A4.153,4.153,0,0,0,11.036,1.1a4.006,4.006,0,0,0-1.187,3.86A11.717,11.717,0,0,1,1.392.738,4.005,4.005,0,0,0,2.663,6.13,4.122,4.122,0,0,1,.8,5.625v.051a4.059,4.059,0,0,0,3.292,3.96A4.144,4.144,0,0,1,2.24,9.7a4.1,4.1,0,0,0,3.833,2.806,8.315,8.315,0,0,1-5.1,1.733A8.546,8.546,0,0,1,0,14.185,11.754,11.754,0,0,0,6.29,16" fill="#fff"/>
</svg>
