<svg xmlns="http://www.w3.org/2000/svg" width="90" height="34" viewBox="0 0 90 34">
  <g id="WineZap-med" transform="translate(0.025)">
    <g id="Primary_Logomark" transform="translate(-0.025)">
      <path id="Path_261" data-name="Path 261" d="M.843,43.684H2.315a.863.863,0,0,1,.846.749l.962,7.836a.69.69,0,0,0,1.37,0l.96-8.017a.647.647,0,0,1,.647-.567H8.7a.647.647,0,0,1,.647.57L10.3,52.58a.69.69,0,0,0,1.372,0l.971-8.13a.874.874,0,0,1,.863-.77h1.4a.874.874,0,0,1,.863.984L12.71,68.736H9.667l-1.12-8.2a.69.69,0,0,0-1.37,0l-1,8.2H3.057L-.02,44.644a.863.863,0,0,1,.863-.96Z" transform="translate(0.025 -34.77)" fill="#941f63"/>
      <path id="Path_262" data-name="Path 262" d="M142.788,68.751h-3.5L136.6,60.188a.738.738,0,0,0-1.441.216v8.343H131.67V44.2a.5.5,0,0,1,.5-.5h2.145a.5.5,0,0,1,.475.347l3.236,10.32a.648.648,0,0,0,1.282-.2V44.2a.5.5,0,0,1,.5-.5h2.462a.535.535,0,0,1,.535.535Z" transform="translate(-103.202 -34.786)" fill="#941f63"/>
      <path id="Path_263" data-name="Path 263" d="M310.141,68.751H306.76l3.217-23.58a1.7,1.7,0,0,1,1.685-1.471h1.53a1.7,1.7,0,0,1,1.685,1.48l3.075,23.571h-3.418l-.481-4.253a1.556,1.556,0,0,0-1.545-1.381h-.369a1.556,1.556,0,0,0-1.547,1.392Zm1.538-19.83-.511,9.914a.967.967,0,0,0,.967,1.016h.382a.969.969,0,0,0,.967-1l-.375-9.925a.716.716,0,0,0-.714-.688h0A.716.716,0,0,0,311.679,48.921Z" transform="translate(-240.42 -34.786)" fill="#941f63"/>
      <path id="Path_264" data-name="Path 264" d="M256.99,44.455a.559.559,0,0,0-.524-.755h-9.56a.522.522,0,0,0-.522.522v2.224a.522.522,0,0,0,.522.522h4.531a.809.809,0,0,1,.768,1.068L246.427,65.2a1.82,1.82,0,0,0-.1.587v2.967h10.807v-2.6a.66.66,0,0,0-.662-.662h-5.9a.548.548,0,0,1-.518-.723l5.992-17.793Z" transform="translate(-193.077 -34.786)" fill="#941f63"/>
      <path id="Path_265" data-name="Path 265" d="M370.77,46.953V68.744h3.5V58.558h.488c2.1,0,3.644-.563,4.546-1.616,1.014-1.163,1.314-2.44,1.314-5.784,0-3.191-.3-4.507-1.353-5.825-1.014-1.277-2.14-1.653-5.178-1.653h-2.695a.624.624,0,0,0-.624.624Zm5.672,6.488a1.886,1.886,0,0,1-1.879,1.879h-.075a.306.306,0,0,1-.306-.3V46.353a.306.306,0,0,1,.306-.3h.371a1.573,1.573,0,0,1,1.575,1.573Z" transform="translate(-290.619 -34.77)" fill="#941f63"/>
      <path id="Path_266" data-name="Path 266" d="M194.88,46.969V44.242a.542.542,0,0,1,.542-.542h7.815a.479.479,0,0,1,.468.526v2.216a.481.481,0,0,1-.468.526h-3.745a1.118,1.118,0,0,0-1.118,1.111v4.9a1.016,1.016,0,0,0,1.016,1.016h1.929a.511.511,0,0,1,.511.509v2.248a.509.509,0,0,1-.511.509H199.34a.969.969,0,0,0-.967.967v6.44a.82.82,0,0,0,.82.82h3.763a.675.675,0,0,1,.675.675v2.589H194.88Z" transform="translate(-152.75 -34.786)" fill="#941f63"/>
      <path id="Path_267" data-name="Path 267" d="M87.323,89.509c-4.332.043-3.914,2.255-3.909.563,0-2.067,0-1.307.015-4.481a3.965,3.965,0,1,1,3.894,3.929Z" transform="translate(-65.368 -64.433)" fill="#f79b6d"/>
      <path id="Path_268" data-name="Path 268" d="M85.562,118.835c4.393-.041,3.968-2.285,3.963-.57,0,2.095,0,1.325-.013,4.531a3.961,3.961,0,1,1-3.95-3.961Z" transform="translate(-63.949 -92.758)" fill="#f79b6d"/>
      <path id="Path_269" data-name="Path 269" d="M87.216,7.489a2.819,2.819,0,0,0,.775,1.661A6.611,6.611,0,0,1,89.16,10.9a3.56,3.56,0,0,1,.168.343,3.94,3.94,0,0,1,.3,1.474h0v4.55c0,1.711.432-.526-3.953-.574a3.95,3.95,0,0,1-3.359-6.041,6.02,6.02,0,0,1,1.1-1.528A2.188,2.188,0,0,0,84.081,7.6c.063-1.868.168-3.733.244-5.61.017-.483-.026-.967-.035-1.452,0-.432.3-.535.667-.535h1.389c.362,0,.669.1.66.554,0,.485-.052.969-.032,1.452.073,1.868.179,3.733.244,5.61" transform="translate(-64.047 0)" fill="#f79b6d"/>
    </g>
  </g>
</svg>
