<svg xmlns="http://www.w3.org/2000/svg" width="20" height="20" viewBox="0 0 20 20">
  <path id="arrow-right" d="M29.3.488a1.72,1.72,0,0,0,0,2.357l5.251,5.488H21.595a1.668,1.668,0,0,0,0,3.333H34.556L29.3,17.155a1.72,1.72,0,0,0,0,2.357,1.546,1.546,0,0,0,2.255,0l7.973-8.333.117-.136.011-.014-.128.151a1.663,1.663,0,0,0,.154-.186q.043-.06.08-.124c.012-.02.023-.04.034-.061s.034-.067.049-.1.025-.057.036-.086.024-.066.035-.1.015-.05.022-.076.018-.072.025-.109.01-.058.015-.087.008-.065.011-.1.005-.079.006-.117c0-.011,0-.021,0-.032V9.969q0-.059-.006-.118L40,10a1.756,1.756,0,0,0-.018-.248c0-.028-.009-.057-.015-.086s-.015-.073-.025-.108-.014-.052-.022-.077-.022-.066-.034-.1-.023-.058-.036-.087-.032-.069-.05-.1-.022-.041-.034-.061q-.038-.064-.08-.124l-.027-.037a1.691,1.691,0,0,0-.127-.15L31.56.488a1.546,1.546,0,0,0-2.255,0" transform="translate(-20)" fill="rgba(33,33,33,0.4)"/>
</svg>
