<svg xmlns="http://www.w3.org/2000/svg" width="21" height="23" viewBox="0 0 21 23">
  <g id="contact-book-C45FA5" transform="translate(-3 -2)">
    <path id="Path_280" data-name="Path 280" d="M8,3V24" transform="translate(0.75 0)" fill="none" stroke="#c45fa5" stroke-linecap="square" stroke-width="2"/>
    <path id="Path_281" data-name="Path 281" d="M23,3V24H6.375A2.354,2.354,0,0,1,4,21.667V5.333A2.354,2.354,0,0,1,6.375,3Z" transform="translate(0 0)" fill="none" stroke="#c45fa5" stroke-linecap="square" stroke-width="2"/>
    <path id="Path_282" data-name="Path 282" d="M8,18.506c0-2.292,3.958-1.91,5.542-3.437.792-.764-1.583-.764-1.583-4.583q0-3.819,3.167-3.819t3.167,3.819c0,3.819-2.375,3.819-1.583,4.583,1.583,1.528,5.542,1.146,5.542,3.437" transform="translate(0.75 0.714)" fill="none" stroke="#c45fa5" stroke-linecap="square" stroke-width="2"/>
  </g>
</svg>
