<svg xmlns="http://www.w3.org/2000/svg" width="22.828" height="22.828" viewBox="0 0 22.828 22.828">
  <g id="eye-off" transform="translate(0.414 0.414)">
    <path id="Path_204" data-name="Path 204" d="M16.4,16.2A9.385,9.385,0,0,1,11,18C4.636,18,1,11,1,11A16.325,16.325,0,0,1,5.6,5.8M9.091,4.21A8.6,8.6,0,0,1,11,4c6.364,0,10,7,10,7a16.169,16.169,0,0,1-1.964,2.791m-6.109-.936a2.8,2.8,0,0,1-2.67.754A2.678,2.678,0,0,1,8.29,11.715a2.562,2.562,0,0,1,.783-2.57" transform="translate(0 0)" fill="none" stroke="#9d9d9d" stroke-linecap="round" stroke-linejoin="round" stroke-width="2"/>
    <line id="Line_115" data-name="Line 115" x2="20" y2="20" transform="translate(1 1)" fill="none" stroke="#9d9d9d" stroke-linecap="round" stroke-linejoin="round" stroke-width="2"/>
  </g>
</svg>
