<svg xmlns="http://www.w3.org/2000/svg" xmlns:xlink="http://www.w3.org/1999/xlink" width="50" height="50" viewBox="0 0 50 50">
  <defs>
    <filter id="Ellipse_118" x="0" y="0" width="50" height="50" filterUnits="userSpaceOnUse">
      <feOffset dy="1" input="SourceAlpha"/>
      <feGaussianBlur stdDeviation="1" result="blur"/>
      <feFlood flood-opacity="0.161"/>
      <feComposite operator="in" in2="blur"/>
      <feComposite in="SourceGraphic"/>
    </filter>
    <radialGradient id="radial-gradient" cx="0.133" cy="1.005" r="1.305" gradientTransform="translate(0)" gradientUnits="objectBoundingBox">
      <stop offset="0.09" stop-color="#fa8f21"/>
      <stop offset="0.78" stop-color="#d82d7e"/>
    </radialGradient>
    <radialGradient id="radial-gradient-2" cx="0.606" cy="1.05" r="1.029" gradientTransform="translate(0)" gradientUnits="objectBoundingBox">
      <stop offset="0.64" stop-color="#8c3aaa" stop-opacity="0"/>
      <stop offset="1" stop-color="#8c3aaa"/>
    </radialGradient>
  </defs>
  <g id="share-instagram" transform="translate(-2064 -1430)">
    <g transform="matrix(1, 0, 0, 1, 2064, 1430)" filter="url(#Ellipse_118)">
      <circle id="Ellipse_118-2" data-name="Ellipse 118" cx="22" cy="22" r="22" transform="translate(3 2)" fill="#fff"/>
    </g>
    <g id="instagram-2016" transform="translate(2074 1439)">
      <path id="Path_218" data-name="Path 218" d="M10,15a5,5,0,1,1,5,5,5,5,0,0,1-5-5M7.3,15A7.7,7.7,0,1,0,15,7.3,7.7,7.7,0,0,0,7.3,15m13.91-8.008a1.8,1.8,0,1,0,1.8-1.8h0a1.8,1.8,0,0,0-1.8,1.8M8.94,27.21a8.291,8.291,0,0,1-2.786-.516,4.662,4.662,0,0,1-1.725-1.122,4.628,4.628,0,0,1-1.122-1.724,8.283,8.283,0,0,1-.516-2.786C2.718,19.481,2.7,19.006,2.7,15s.016-4.479.087-6.062a8.345,8.345,0,0,1,.516-2.786A4.662,4.662,0,0,1,4.429,4.428,4.623,4.623,0,0,1,6.155,3.305,8.283,8.283,0,0,1,8.94,2.789C10.521,2.717,11,2.7,15,2.7s4.479.016,6.062.087a8.345,8.345,0,0,1,2.786.516,4.647,4.647,0,0,1,1.725,1.122A4.647,4.647,0,0,1,26.7,6.153a8.283,8.283,0,0,1,.516,2.786c.073,1.582.087,2.056.087,6.062s-.015,4.479-.087,6.062a8.322,8.322,0,0,1-.516,2.786,4.967,4.967,0,0,1-2.847,2.846,8.283,8.283,0,0,1-2.786.516c-1.581.073-2.056.087-6.062.087s-4.479-.015-6.06-.087M8.816.091a11,11,0,0,0-3.641.7,7.357,7.357,0,0,0-2.657,1.73A7.329,7.329,0,0,0,.788,5.175a11,11,0,0,0-.7,3.641C.017,10.415,0,10.927,0,15s.017,4.585.091,6.184a11,11,0,0,0,.7,3.641,7.333,7.333,0,0,0,1.73,2.657,7.375,7.375,0,0,0,2.657,1.73,11.009,11.009,0,0,0,3.641.7c1.6.073,2.111.091,6.184.091s4.585-.017,6.184-.091a11,11,0,0,0,3.641-.7,7.669,7.669,0,0,0,4.387-4.387,10.972,10.972,0,0,0,.7-3.641c.073-1.6.09-2.111.09-6.184s-.017-4.585-.09-6.184a11,11,0,0,0-.7-3.641,7.377,7.377,0,0,0-1.73-2.657A7.34,7.34,0,0,0,24.827.788a10.985,10.985,0,0,0-3.641-.7C19.587.018,19.075,0,15,0S10.416.017,8.816.091" transform="translate(0 0)" fill="url(#radial-gradient)"/>
      <path id="Path_219" data-name="Path 219" d="M10,15a5,5,0,1,1,5,5,5,5,0,0,1-5-5M7.3,15A7.7,7.7,0,1,0,15,7.3,7.7,7.7,0,0,0,7.3,15m13.91-8.008a1.8,1.8,0,1,0,1.8-1.8h0a1.8,1.8,0,0,0-1.8,1.8M8.94,27.21a8.291,8.291,0,0,1-2.786-.516,4.662,4.662,0,0,1-1.725-1.122,4.628,4.628,0,0,1-1.122-1.724,8.283,8.283,0,0,1-.516-2.786C2.718,19.481,2.7,19.006,2.7,15s.016-4.479.087-6.062a8.345,8.345,0,0,1,.516-2.786A4.662,4.662,0,0,1,4.429,4.428,4.623,4.623,0,0,1,6.155,3.305,8.283,8.283,0,0,1,8.94,2.789C10.521,2.717,11,2.7,15,2.7s4.479.016,6.062.087a8.345,8.345,0,0,1,2.786.516,4.647,4.647,0,0,1,1.725,1.122A4.647,4.647,0,0,1,26.7,6.153a8.283,8.283,0,0,1,.516,2.786c.073,1.582.087,2.056.087,6.062s-.015,4.479-.087,6.062a8.322,8.322,0,0,1-.516,2.786,4.967,4.967,0,0,1-2.847,2.846,8.283,8.283,0,0,1-2.786.516c-1.581.073-2.056.087-6.062.087s-4.479-.015-6.06-.087M8.816.091a11,11,0,0,0-3.641.7,7.357,7.357,0,0,0-2.657,1.73A7.329,7.329,0,0,0,.788,5.175a11,11,0,0,0-.7,3.641C.017,10.415,0,10.927,0,15s.017,4.585.091,6.184a11,11,0,0,0,.7,3.641,7.333,7.333,0,0,0,1.73,2.657,7.375,7.375,0,0,0,2.657,1.73,11.009,11.009,0,0,0,3.641.7c1.6.073,2.111.091,6.184.091s4.585-.017,6.184-.091a11,11,0,0,0,3.641-.7,7.669,7.669,0,0,0,4.387-4.387,10.972,10.972,0,0,0,.7-3.641c.073-1.6.09-2.111.09-6.184s-.017-4.585-.09-6.184a11,11,0,0,0-.7-3.641,7.377,7.377,0,0,0-1.73-2.657A7.34,7.34,0,0,0,24.827.788a10.985,10.985,0,0,0-3.641-.7C19.587.018,19.075,0,15,0S10.416.017,8.816.091" transform="translate(0 0)" fill="url(#radial-gradient-2)"/>
    </g>
  </g>
</svg>
