<svg xmlns="http://www.w3.org/2000/svg" width="19.504" height="19.5" viewBox="0 0 19.504 19.5">
  <path id="thumbs-up-C45FA5" d="M12.974,8.3V4.7A2.722,2.722,0,0,0,10.231,2L6.573,10.1V20H16.888a1.821,1.821,0,0,0,1.829-1.53l1.262-8.1a1.78,1.78,0,0,0-.428-1.451,1.842,1.842,0,0,0-1.4-.619ZM6.573,20H3.829A1.815,1.815,0,0,1,2,18.2V11.9a1.815,1.815,0,0,1,1.829-1.8H6.573" transform="translate(-1.25 -1.25)" fill="none" stroke="#c45fa5" stroke-linecap="round" stroke-linejoin="round" stroke-width="1.5"/>
</svg>
