<svg xmlns="http://www.w3.org/2000/svg" width="200" height="77" viewBox="0 0 200 77">
  <g id="WineZap-large" transform="translate(0.025)">
    <g id="Primary_Logomark" transform="translate(-0.025)">
      <path id="Path_261" data-name="Path 261" d="M1.912,43.69H5.193a1.925,1.925,0,0,1,1.886,1.67L9.226,62.836a1.54,1.54,0,0,0,3.056,0l2.141-17.881a1.444,1.444,0,0,1,1.444-1.266h3.566a1.444,1.444,0,0,1,1.444,1.27L23,63.529a1.54,1.54,0,0,0,3.06,0L28.228,45.4a1.949,1.949,0,0,1,1.925-1.718h3.133a1.949,1.949,0,0,1,1.925,2.194L28.377,99.56H21.592l-2.5-18.285a1.54,1.54,0,0,0-3.056,0L13.8,99.56H6.849L-.013,45.831A1.925,1.925,0,0,1,1.912,43.69Z" transform="translate(0.025 -22.637)" fill="#941f63"/>
      <path id="Path_262" data-name="Path 262" d="M156.466,99.571h-7.8l-6-19.1a1.646,1.646,0,0,0-3.214.481V99.561H131.67V44.807a1.107,1.107,0,0,1,1.107-1.107h4.783a1.107,1.107,0,0,1,1.059.775l7.218,23.015a1.446,1.446,0,0,0,2.858-.438V44.807A1.107,1.107,0,0,1,149.8,43.7h5.49a1.193,1.193,0,0,1,1.193,1.193Z" transform="translate(-68.44 -22.648)" fill="#941f63"/>
      <path id="Path_263" data-name="Path 263" d="M314.3,99.571h-7.54l7.174-52.589a3.792,3.792,0,0,1,3.758-3.282H321.1a3.792,3.792,0,0,1,3.758,3.3l6.857,52.57H324.1l-1.073-9.484a3.469,3.469,0,0,0-3.445-3.08h-.823a3.469,3.469,0,0,0-3.45,3.1Zm3.431-44.226-1.14,22.111a2.156,2.156,0,0,0,2.156,2.266h.852a2.161,2.161,0,0,0,2.156-2.238l-.837-22.135a1.6,1.6,0,0,0-1.593-1.535h0a1.6,1.6,0,0,0-1.593,1.53Z" transform="translate(-159.527 -22.648)" fill="#941f63"/>
      <path id="Path_264" data-name="Path 264" d="M270.105,45.384a1.246,1.246,0,0,0-1.169-1.684H247.615a1.164,1.164,0,0,0-1.164,1.164v4.961a1.164,1.164,0,0,0,1.164,1.164h10.1a1.8,1.8,0,0,1,1.713,2.382L246.547,91.645a4.056,4.056,0,0,0-.216,1.309v6.616h24.1V93.763a1.472,1.472,0,0,0-1.477-1.477H255.795a1.222,1.222,0,0,1-1.155-1.612L268,50.99Z" transform="translate(-128.048 -22.648)" fill="#941f63"/>
      <path id="Path_265" data-name="Path 265" d="M370.77,50.98v48.6h7.81V76.863h1.087c4.692,0,8.127-1.256,10.139-3.6,2.262-2.594,2.93-5.442,2.93-12.9,0-7.117-.669-10.052-3.017-12.992-2.262-2.849-4.773-3.686-11.548-3.686h-6.01a1.391,1.391,0,0,0-1.391,1.391Zm12.65,14.469a4.206,4.206,0,0,1-4.191,4.191h-.168a.683.683,0,0,1-.683-.678V49.642a.683.683,0,0,1,.683-.678h.828a3.508,3.508,0,0,1,3.513,3.508Z" transform="translate(-192.736 -22.637)" fill="#941f63"/>
      <path id="Path_266" data-name="Path 266" d="M194.88,50.99V44.908a1.208,1.208,0,0,1,1.208-1.208h17.429a1.068,1.068,0,0,1,1.044,1.174v4.942a1.073,1.073,0,0,1-1.044,1.174h-8.353a2.493,2.493,0,0,0-2.493,2.478V64.386a2.266,2.266,0,0,0,2.266,2.266h4.3a1.14,1.14,0,0,1,1.14,1.136V72.8a1.136,1.136,0,0,1-1.14,1.136h-4.412a2.161,2.161,0,0,0-2.156,2.156V90.457a1.829,1.829,0,0,0,1.829,1.829h8.392a1.506,1.506,0,0,1,1.506,1.506v5.774H194.88Z" transform="translate(-101.295 -22.648)" fill="#941f63"/>
      <path id="Path_267" data-name="Path 267" d="M92.148,99.108c-9.662.1-8.729,5.028-8.719,1.256,0-4.61,0-2.916.034-9.994a8.843,8.843,0,1,1,8.685,8.762Z" transform="translate(-43.342 -42.373)" fill="#f79b6d"/>
      <path id="Path_268" data-name="Path 268" d="M90.449,120.329c9.8-.091,8.849-5.1,8.839-1.27,0,4.672,0,2.954-.029,10.1a8.835,8.835,0,1,1-8.811-8.835Z" transform="translate(-42.401 -60.998)" fill="#f79b6d"/>
      <path id="Path_269" data-name="Path 269" d="M93.983,16.7a6.287,6.287,0,0,0,1.727,3.705,14.743,14.743,0,0,1,2.608,3.9,7.943,7.943,0,0,1,.375.765,8.786,8.786,0,0,1,.664,3.287h0V38.5c0,3.816.962-1.174-8.815-1.28a8.811,8.811,0,0,1-7.492-13.473,13.425,13.425,0,0,1,2.459-3.407,4.879,4.879,0,0,0,1.482-3.4c.14-4.167.375-8.325.544-12.511.038-1.078-.058-2.156-.077-3.238C87.454.231,88.137,0,88.945,0h3.1c.808,0,1.492.231,1.472,1.237,0,1.083-.115,2.161-.072,3.238.164,4.167.4,8.325.544,12.511" transform="translate(-42.467 0)" fill="#f79b6d"/>
    </g>
  </g>
</svg>
