<svg xmlns="http://www.w3.org/2000/svg" width="45" height="17" viewBox="0 0 45 17">
  <g id="WineZap-small" transform="translate(0.025 5)">
    <g id="Primary_Logomark" transform="translate(-0.025 -5)">
      <path id="Path_261" data-name="Path 261" d="M.409,43.682h.736a.432.432,0,0,1,.423.374l.481,3.918a.345.345,0,0,0,.685,0l.48-4.009a.324.324,0,0,1,.324-.284h.8a.324.324,0,0,1,.324.285l.477,4.163a.345.345,0,0,0,.686,0l.485-4.065a.437.437,0,0,1,.432-.385h.7a.437.437,0,0,1,.432.492L6.342,56.208H4.821l-.56-4.1a.345.345,0,0,0-.685,0l-.5,4.1H1.516L-.023,44.162a.432.432,0,0,1,.432-.48Z" transform="translate(0.025 -39.225)" fill="#941f63"/>
      <path id="Path_262" data-name="Path 262" d="M137.229,56.226h-1.748l-1.345-4.282a.369.369,0,0,0-.721.108v4.172H131.67V43.948a.248.248,0,0,1,.248-.248h1.072a.248.248,0,0,1,.237.174l1.618,5.16a.324.324,0,0,0,.641-.1V43.948a.248.248,0,0,1,.248-.248h1.231a.268.268,0,0,1,.268.268Z" transform="translate(-117.436 -39.243)" fill="#941f63"/>
      <path id="Path_263" data-name="Path 263" d="M308.45,56.226h-1.69l1.608-11.79a.85.85,0,0,1,.843-.736h.765a.85.85,0,0,1,.843.74l1.537,11.786h-1.709l-.241-2.126a.778.778,0,0,0-.772-.69h-.184a.778.778,0,0,0-.773.7Zm.769-9.915-.256,4.957a.483.483,0,0,0,.483.508h.191a.484.484,0,0,0,.483-.5l-.188-4.962a.358.358,0,0,0-.357-.344h0A.358.358,0,0,0,309.22,46.311Z" transform="translate(-273.59 -39.243)" fill="#941f63"/>
      <path id="Path_264" data-name="Path 264" d="M251.66,44.078a.279.279,0,0,0-.262-.378h-4.78a.261.261,0,0,0-.261.261v1.112a.261.261,0,0,0,.261.261h2.265a.4.4,0,0,1,.384.534l-2.889,8.581a.91.91,0,0,0-.049.293v1.483h5.4v-1.3a.33.33,0,0,0-.331-.331h-2.95a.274.274,0,0,1-.259-.361l3-8.9Z" transform="translate(-219.703 -39.243)" fill="#941f63"/>
      <path id="Path_265" data-name="Path 265" d="M370.77,45.317v10.9h1.751V51.119h.244a2.875,2.875,0,0,0,2.273-.808c.507-.581.657-1.22.657-2.892,0-1.6-.15-2.254-.676-2.913-.507-.639-1.07-.826-2.589-.826h-1.347a.312.312,0,0,0-.312.312Zm2.836,3.244a.943.943,0,0,1-.94.94h-.038a.153.153,0,0,1-.153-.152V45.017a.153.153,0,0,1,.153-.152h.186a.786.786,0,0,1,.788.786Z" transform="translate(-330.695 -39.225)" fill="#941f63"/>
      <path id="Path_266" data-name="Path 266" d="M194.88,45.334V43.971a.271.271,0,0,1,.271-.271h3.907a.239.239,0,0,1,.234.263v1.108a.241.241,0,0,1-.234.263h-1.873a.559.559,0,0,0-.559.556v2.448a.508.508,0,0,0,.508.508h.964a.256.256,0,0,1,.256.255v1.124a.255.255,0,0,1-.256.255h-.989a.484.484,0,0,0-.483.483v3.22a.41.41,0,0,0,.41.41h1.881a.338.338,0,0,1,.338.338v1.295H194.88Z" transform="translate(-173.815 -39.243)" fill="#941f63"/>
      <path id="Path_267" data-name="Path 267" d="M85.362,85.608c-2.166.022-1.957,1.127-1.955.282,0-1.033,0-.654.008-2.241a1.983,1.983,0,1,1,1.947,1.964Z" transform="translate(-74.385 -73.07)" fill="#f79b6d"/>
      <path id="Path_268" data-name="Path 268" d="M83.576,118.228c2.2-.02,1.984-1.142,1.982-.285,0,1.048,0,.662-.006,2.265a1.981,1.981,0,1,1-1.975-1.981Z" transform="translate(-72.769 -105.189)" fill="#f79b6d"/>
      <path id="Path_269" data-name="Path 269" d="M84.466,3.744a1.41,1.41,0,0,0,.387.831,3.305,3.305,0,0,1,.585.874,1.78,1.78,0,0,1,.084.172,1.97,1.97,0,0,1,.149.737h0V8.632c0,.855.216-.263-1.976-.287a1.975,1.975,0,0,1-1.68-3.021,3.01,3.01,0,0,1,.551-.764A1.094,1.094,0,0,0,82.9,3.8c.031-.934.084-1.866.122-2.8C83.029.752,83.007.51,83,.268c0-.216.152-.268.333-.268h.695c.181,0,.334.052.33.277,0,.243-.026.484-.016.726.037.934.09,1.866.122,2.8" transform="translate(-72.882 0)" fill="#f79b6d"/>
    </g>
  </g>
</svg>
